<svg xmlns="http://www.w3.org/2000/svg" xml:space="preserve" viewBox="0 0 500 500"><linearGradient id="a" x1=".473" x2=".619" y1="-.018" y2="-.018" gradientTransform="rotate(-44.236 803.86 654.95) scale(1239.8849)" gradientUnits="userSpaceOnUse"><stop offset="0" style="stop-color:#9d141c"/><stop offset=".6" style="stop-color:#c04215"/><stop offset="1" style="stop-color:#e4700d"/></linearGradient><path d="M218.66 178.85c2.96-1.2 4.14-2.64 7.7-2.73 1.29-1.41 5.48-1.92 6.07-3.43.43-1.11.19-1.23 1.34-1.88 1.37-.78 3.61-1.04 5.34-.96 2.81.13 4.94-.72 5.51.6-.88.39-1.47.23-2.17.86-.78.71-.25.31-1.21.7-.8.32-.18.17-.77.5-.27-.74-1.08-1.55-2.11-1.56-.17 0-3.16.54-3.26.58.54 2.89 2.87-1.09 4.39 3.29.03-.04.06-.17.08-.14.01.03.06-.11.08-.14.41-.74.07-.44.43-.66.46.64.82 1.99 1.35-.05.98.96 2.87-.01 4.86-.6 1.23-.36 3.8-1.46 5.14-1.2-.18 1.05-1.59 1.28-1.77 2.32.91-.1 2.17-1.12 3.3-1.48 3.04-.97 6.4-.7 9.37-.66 1.7.03 3.35-.14 5.06.03.79.07 1.53.23 2.27.33 1.49.2 5.28.18 6.13 1.71.03.05.1.22.12.27l.11.28c1.26-.34 1.33-.2 2.58.08 5.43 1.22.85 1.59 3.73 2.73 4.14 1.64 7.6 4.29 8.33 4.62 1.33.6 1.16-1.34 4.49 1l5.97 3.73c2.95 1.68 5.09 5.96 6.47 6.43-.81-1.22-4.06-4.27-3.98-6.02 2.6-.84 4.75 3.35 6.63 5.88l5.08 8.05c.74.88.27-.13.61.88.41 1.19 1.07 1.96 2.05 2.91.47.46 1.3.82 1.58 1.64 1.09 3.25 2.31 2.04 3.37 6.36.48 1.94 1.37 3.22 1.68 5.13 3.14 10.48 6.64 23.89 7.18 36.91.06-.06.15-.13.31-.25.11 1.15-.05 1.85.21 3.03.26 1.24.26 1.65.07 2.95-.42 2.93.65.78-.89 5.67l-.09.11c-.53 4.32-1.52 8.48-3.13 12.32-2.68 8.32-3.45 11.96-8.07 19.13-1.41 2.2-.23 1.04-2.58 4.08l-3.05 3.79c-1.45 2.01-.59 1.5-2.99 3.86-1.04 1.02-2.36 2.21-3.12 3.78l-3.1 3.13c-.64.54-.83.44-.85 1.41-1.01-.35-.28-.34-1.17.55-1.19 1.18-3.41 2.09-4.37 3.62-.98-.14-.93-.39-1.89.57-.04.04-.14.16-.18.2l-.2.19c-.05.05-.34.25-.44.34-.35.29-.52.51-.79.79 1.11-.08 1.08-.52 2.02.06l.76.38c-.8.69-.68 1.17-1.95 1.18.47-.72.46-.27.84-1.07-.97.13-1.5.62-2.32 1.01-.44.21.15.04-.36.1-.56.06.33-.06-.42-.02-.72.04-.72.2-1.18.81l-.54.6c-1.08.89-2.23 1.52-3.36 2.16-1.17.67-1.75.81-2.86 1.69-.02.82.3.77-.12 1.24l.92.18c-1.53 1-.86-.61-2.75 1.03-.5.44-.48.37-.6 1.17l3.03-1.06c-.39.19-.73.48-1.21.72-1.07.53-.78.04-1.21 1.07-.84-.86-1.34.14-1.83.97.68-.14.71-.41 1.28-.19-.38.18-1.2.37-1.52.78-.54.67-.03 1.06-.95 1.45l.49-1.2c-1.56-.07-.42.5-1.49 1.04-1.01.51-.79-.14-1.76.9-.63.67-.45-.09-.51.86-.05.94.22.67.75 1.18l.38.34c.34.28.13.08.41.49 1.09.07 1.28-.06 1.65-.55.55-.73-.4-.01.39-.55 1.06-.15 1.24.22 1.99.42.68-1.07-.01-.35 1.08-.81.46-.2.77-.44 1.42-.58-.04.04-.09.05-.1.12-.1.41-.77.69-1.06.93-.03.03-.07.06-.1.09-1.06.98-.29.64-1.97.73-.02 0-.08 0-.12.01v.22c.06.52.34.16-.07.83-.77 1.28-.56.02-.98.91.21.88.61.78 1.49.82l.32.7c.06-.02.32-.37.35-.39.54-.27.67.16 1.85-.68.9-.65 1.05-1.08 2.31-1.5 1.08-.37 2.82-.42 3.22-1.55.31-.9-.18-.24-.03-1.16.03-.19.12-.49.15-.79l1.61-.32c-.14-.07-.4-.25-.58-.46.11-.11.2-.18.28-.26l.35-.36c-1.06.14-.6.14-1.23.79l-.53-.91-.4.85c-.21.37-.06.26-.56.42.01-.04.05-.12.06-.1l.22-.69c-1.38-.04-.52.48-1.22 1.12-1.1 1-.94-.52-1.04 1.65-1.37 0-.35.48-1.3.88-.5-.96.38.13-.08-.61-.29-.46.29.08-.27-.23-.04-.02-.1-.04-.14-.06-.05-.02-.26-.07-.32-.1.03-.04.08-.16.1-.13l.43-.63c.12-.22.3-.52.15-.91-1.26-.36-2.57 1.27-3.74 1.32.64-.34 3.07-1.98 3.94-2.05 1.35-.12-.09.85 3.15-.7 1.6-.76 1.42-.66.72-2.09.65-.49 1.46-.64 2.28-1.05.54-.27.64-.52 1.4-.66-.58 2.75-1.76.33-3 2.67.79.5-.16.1.91.17.45.03.42.06.89.17-.06-.62-.05-.47-.33-.87l.74-.23c.27.63-.52.39.37.7.09-.16.86-1.86.93-2.08.04.04.07.06.09.13.02.07.07.1.09.13.45.59.61.66 1.43.54.06-.01.21-.04.26-.04.03 0 .09-.01.12-.02.03 0 .1-.01.12-.02.02 0 .08 0 .12-.01.07-.36-.02-1.08-.28-1.49-.69-1.12-.27.46-.65-.6.21-.19 1.1-.71 1.58-.77l.38.85 1.49-.83c-.25 1.12-.65.58-1.44 1.42.19.58-.28.15.66.49-.79.53-.18.43-.71 1.3l-.38-.79-.64 1c-.35.66-.63.89-1.64 1.04-.3-.53-.22-.78-.79-.97-.46 1.4.52 1.98-1.86 1.64l.42 2.13c1.41-.26 1.28-1.17 2.77-1.11.13-1.99.11-1.26 1.74-1.37.67-.79.36-1.22 2.04-1.15-.19.82-.21.65-.79.96l.44.27c.38.28.2-.04.44.38l-1.38.4.22.48c.01 1.18-.44-.74-.02.27 1.25-.36 1.24-.55 2.43-.05l.36-1.06c1.46.11 1.63-.42 2.21.26-1.25.38-3.17 1.18-4.63 1.75-1.41.54-3.29 1.45-4.78 1.77.11 1.05.41.18 0 .85-1.44.12 0-.06-.68-.35-.44-.19-.49-.03-.78.22-.96.83-.24.46-1.7.77-1.18.25-2.18 1.05-3.43 1.51-2.52.92.54.5-3.25 1.32-2.84.62-1.68.95-3.14 1.71-.03.02-.1.04-.15.07.83-.1.99-.46 1.37-.22-.82 1.08-3.5 1.14-4.06 1.24-.92.16-3.58.66-3.91 1.43.71.33 1.41-.21 2.43-.18-.51.73-.67.28-1.66 1.13l-.63.61c3.16-.48 2.95-1.26 3.57-1.85.46-.43.7-.35 1.18-.66l.27.17c.8.54.98.7 2.91.16 2.11-.59 1.25-.45 1.92-.98.29-.23.34-.25.8-.25l-.64.62 1.39.05-.28.84c-.09.56.37.56-.49.85-1.16.39-1.71-.09-2.67-.26-1.16-.21-1.42.2-2.25.49-.93.33-4.47.63-6.92 2.01-.47.27-1.33.77-1.83 1.02-1.35.69-2 .61-2.16 1.36l.11 1.12c.44.79.03.09.38.44.42-.39.49-.14.28-.64-.38-.87.12.65-.47-.37.73-.26.92-.55 1.53-.95.17.29.26-.1.09.67-.35-.5-.08-.31-.75-.2l-.03 1.42c1.02-.25 1.52-.82 2.14-1.37 1.13-1.01.89-.67 2.28-.74.02-.54-.08-.6-.33-.93l1.5.09c-.11.84-.53.72-.48 1.78 1.61-.11 4.13-.82 5.64-1.27 1.04-.3 1.81-.56 2.73-.9 1.24-.46 1.91-.37 1.51-1.78l-.8.82c-.64-.05-.61-.01-1.04-.42.26-.43 1.76-.86 2.37-1.15 1.5-.71 1.58-.44 2.29.58.69-.11.84-.26 1.46-.44 1.06-.3 1.11.03 1.69-.08 2.53-.5 1.75-1.36 3.33-1.51 2.13-.2 1.11-.79 2.45-1.02.57-.1.67-.17 1.13-.41.71-.36 1.29-.66 1.99-1.04 1.78-.98 1.61-.47 1.74-1.27 2.37-.46 2.15.14 4.86-1.63l11.98-7.97c.22.26.35.49.77.51.44.02.41-.14.88-.33-.31.99-.55.47-.79 1.21.46-.09 5.11-4.48 5.53-4.92 1.36-1.44 2.85-2 5.74-5.11 1.15-1.24 2.01-.82 3.28-2.04.85-.82 1.8-1.75 2.57-2.75 1.17-1.52.74-1.95 2.72-2.63.92-.32 1.85-2.21 2.34-3.11.02-.04.02-.17.03-.14 0 .03.02-.11.03-.14.18-.86.01-.29 1.16-1.39.68-.65 1.04-.88 1.56-1.87 1-1.9 1.65-2.85 3.83-2.63 1.44-3.94 2.98-4.91 4.24-8.3.77-2.08.87-.89 1.64-2.54.89.17.29.03.95.63l1.79-5.73c.21-.51.69-1.13.98-1.67.49-.9.14-3.1.22-4.44.05-.96.37-.98.69-1.68.36-.79.3-1.43.53-2.14.21-.65.54-.86.87-1.6.22-.5.39-1.27.72-1.76 1.05-1.59 2.17-1.62 1.74-3.19-.49-1.8-1.28.09-.25-3.51 1.35-4.71 1.17-1.7 2.13-3.09.15-1.59.34-3.07.58-4.65l.49-7.68c-.04-1.33.34-1.28.49-2.33.3-2.02-.44-1.1.47-2.24.56-.7.62-1.29.26-2.3-.22-.62-.77-1.22-.94-1.76l-.48-4.86c.19-1.02.76-.92.91-1.95.12-.82 0-1.71.32-2.39.61-1.31.54-.5.42-2.17-.07-.91.16-1.81.11-2.44-.11-1.52-.49.32-.18-2.28-.32-.39-.9-.65-1.05-1.23-.2-.8.17-1.03-.18-2.12l-1.03-5.82c-.07-1.28.06-.91-.46-1.83-.65-1.16-.57-2.64-1.04-3.54-.45-1.15-.45-.67-.54-2.15-.05-.86-.28-1.58-.54-2.28-.9-2.42-.59-2.61-1.74-4.03.27-.83.54-.58.26-1.31-.14-.37-.52-.84-.68-1.42-.36-1.26.2-.73-.75-3.43-.22-.62-.44-.93-.63-1.46-.21-.57-.21-1.16-.46-1.66-.24-.5-.58-.72-.88-1.21-.3-.49-.46-.88-.67-1.43l-.87.01c.28-.9.81-1.07.44-2.02-.3-.78-.83-.91-1.18-1.49-1.27-2.07-.04-2.31-2.63-5.37-1.33-1.57.31-.65-3.16-5.02-3.44-4.34-1.18-2.96-2.77-5.22-.41-.58-.61-1.11-1.04-1.63-.54-.66-.83-.53-1.44-1.23-1.3-1.5-.61-.59-1.4-1.26-.65-.56-.44-1.01-.99-1.67-.44-.52-1-.59-1.75-1.04-.37-1.45.84-2.04-.83-2.86-1.24-.61-1.29-.91-2.04-1.95-.97-1.36-2.14-3.68-4.04-3.9l-.13-.3c-.29-.64-.02-.47-.52-.81-.37-.26-.86-.21-1.43-.25-.53-1.76-1.17-1.88-2.25-2.92-1.12-1.08-4.5-3.54-5.91-4.35-.92-.53-.8-.79-1.47-1.22-.65-.42-1.07-.53-1.71-.94-1.19-.77-2.02-1.25-3.15-1.98-.63-.41-1.05-.71-1.73-.95-.68-.24-1.59-.18-2.12-.51-1.15-.71.61-.92-6.44-4.02-1.13-.5-9.86-4.28-10.52-5.09-.63-.77-.17-.84-1.49-1.16-.79-.19-1.41-.27-2.18-.49-1.26-.35-2.75-.74-4.11-1-2.18-.41-2.48.09-4.28-1.07-1.16-.75-2.68-.72-4.2-.91-3.06-.39-4 .03-4.98-.11-1.03-.51-3.7-.63-5.04-.4-2.37.41-4.42-.78-7.62-.25-1.42.24-1.17.03-2.25-.28-1.13-.32-15.67-.56-16.81-.47-2.93.23-4.94-.68-7.72.06-1.07.29-.84.81-1.61 1.43-1.7-.07.11-.53-1.71-.51-1.09.01-.76.43-1.72.52-6.44.62-3.33.84-5.14 1.18-1.29.24-2.44.04-4.53 1.61-.32.07-3.04.78-3.19.86-.58.3-.46.6-1.41.69-.84.08-2.65-.5-5.09.62-1.15.53-1.28 1.47-2.53 1.61-1.34.15-2.06.55-3.29.75l-3.53.67c-.36.17-.65.58-1.06.83-1.22.74-2.17.19-3.51 2.72-1.37.03-2.06-.32-3.31.34-1.29.69-1.12 1.11-1.34 2.66-1.88.61-3.91 1.14-4.81 2.45-.9.05-2.19.85-2.87 1.64-2.02 2.34-1.25 1.49-2.84 1.88-1.6.39-1.56 1.83-2.34 2.25-1.31.7-1.24-.37-2.55 1.48-.51.72-.38.07-.98.92-1.66 2.32-1.68.66-4.81 3.36l-4.34 3.64c-.49.44-.36.26-.64.81-.39.11-.1-.06-.54.29l-1.37 1.49c-1.35 1.48-.81.41-1.88 2.11-.86 1.37-2.38 1.84-4.11 3.88-1.22 1.44-2.41 2.63-3.52 4.28-.46.69-.31.48-.91.97-.5.4-2.29 2.51-2.01 3.73-1.81.04-1.1 1.02-2.68 3.03-1.53 1.96-3.45 5.09-4.88 6.91-.98 1.24-1.61 1.91-2.32 3.65-1.19 1.14-3.13 4.28-3.61 6-.37 1.3-.66 2.53-.98 3.76-.17.64-.41 1.18-.67 1.83-.45 1.09-.25.92-.41 2.08-.15 1.13-.43.52-.61 1.73-.15 1.05-.08.98-.48 1.92-.94 2.16-.02 2.99-.35 3.84-.1.27-.66.86-.92 1.36-.48.94-.23 1.02-.44 1.99-.18.84-1.73 2.81-.51 3.35-.81.55-.74.54-.87 1.72-.16 1.39-.39 5.48.67 6.47l.49.33c-1.89 2.62-1.43 2.91-1.29 5.84.06 1.16-.31 1.35-.31 2.47-.01 1.64.4 3.21.34 4.95-.06 1.79-.38 3.26-.16 5.02.29 2.28 1.92 5.4 2.69 7.81.96 3.04 1.62 4.95 2.09 8.32.19 1.32.97 3.25.83 4.29-.29 2.18-1.69 1.61-.12 3.79 1.39 1.93.67 6.17 2.2 9.42.53 1.12-.27.18.55 1.71l1.26 2.74c.57.99.24 1.27.62 2.03.48.98 2.12 2.66 3.04 4.77.49 1.14.53.63 1.42 1.27-.17.12.12-.03-.38.22-.21.1-.11.02-.38.16.03 1.95.53 1.48.81 2.17.23.55-.37.26.24.95.35.4.35.02.84.69-.3.26-.61.18-1.02.12.07 1.23 3.04 5.2 4.04 5.78 1.1.65.26.51 1.17 1.32.62.55.79.59 1.38 1.28.62.72 1.8 2.15 2.18 2.96l.82-.83c.21 1.26.25 1.26.99 1.87.86.72.71 1.22 1.22 1.63.84.67 1.23-.07 1.83 1.03.31.57.45 1.49.81 2.05.53.81 2.22 1.84 2.97 2.73.83.99 1.84 2.54 2.62 3.27.6.56.47.16.93.57l.26.31c.19.21.17.18.4.37.53.45 1.37 1.8 2.71 3l2.89 2.8c.56.54.72 1.15 1.24 1.62l3.86 3.37c.64.59.22.2.96.57.99.49.58.92 1.25 1.6.35.36 1.17.76 1.64 1.22 1.01 1 1.56 2.23 2.74 2.97 1.28.8 2.92 2.66 4.74 4.01 2.11 1.57 2.71 3.85 6.65 4.76l6.89 1.69c1.42.4 1.54.07 2.81.2.6.42.49.64 1.05 1.06.36.27.98.47 1.39.72 1.23.73 2.36.35 3.31.87.49.26.64.71 1.05 1.04.61.5.77.32 1.46.63 1.07.48.3 1.06 2.64 1.73 2.92.83 4.49.62 7.6.49 2.58-.11 3.92.32 4.6-.88.24-.42-.58.08.2-.25.9-.37.49.8.43 1.25 1.22.22 4.79.18 5.96-.13 2.7-.71 5.65-.49 8.22-1.67 2.05-.94 1.83.14 4.86-1.81 1.14-.74 1.49-.54 2.93-.57.26-.99 1.36-1.95 2.61-1.9.3.49.12.83.38 1.28 1.25-1.62.47-1.14.6-2.76 1.22-.6 2.37-1.35 3.51-2 .88-.51 1.14-.11 1.69-.97.35-.55.72-1.32 1.02-1.84.98-1.72 1.92-1.71 2.69-2.83.46-.68.44-1.12 1.05-1.8 1.34-1.51-.01-2.7 1.86-6.51 1.98-4.05-1.48-3.18-2.08-5.26-.39-1.34 1.24-2.74-.48-4.1-.97-.76-.96-.05-2.26-.16-.98-.51-1.47-1.78-2.03-2.52-.9-.14-1.36.01-2.11-.07l-1.11-.78c-.02-.03-.04-.09-.07-.13-3.63.34-2.52-1.26-3.56-1.72-1.54-.11-2.68-.15-4.05-.52-1.78-.48-1.97-1.09-3.42.01-1.52-.76-2.56-.17-4.15-.42-1.88-.3-2.24-.11-3.97.47-.39 2.78-1.74 2.11-2.01.91-.01-.06-.05-.27-.06-.32l-.08-.3c-1.93.02-3.91.43-4.35-1.5.43-.57.63-.61 1.36-.91l1.27-.42c.4-.14.25-.06.44-.2-.74-.56-.68-.26-1.57-.16-.8.09-1.25-.08-2.07.01-.43.59-.72 1.42-1.16 2.04-1.87.24-1.93-.87-2.55-1.99-.41-.74-1.88-1.37-2.94-1.61-.24 1.49.13 1.71-1.31 2.12-2.63.74-3.12-.49-4.7-2.04-.89-.87-1.61-.48-2.64-.97l-2.2-1.23c-.69-.38-1.45-1-2.12-1.49-2.7-1.96-5.27-4.24-7.51-6.56-.95-.98-2.35-3.19-3.26-3.78-1.69-1.12-1.19-1.63-2.26-2.87-.51-.59-.71-.48-1.1-.81-.56-.48-.22-.43-.56-1.13-.33-.67-.47-.52-.97-.94-.61-.52-.93-1.35-1.64-2.02-1.62.05-1.53.07-2.72-1.23-.73-.8-1.3-1.53-1.95-2.43l-1.96-2.41c-.7-1.04-.37-2.32-1.75-2.87-.08 1.17.06 1.79.03 2.75-1.28.91-1.68-.13-2.96-1.48-.95-1-1.63-1.82-2.67-2.84-3.33-3.26-3.14-3.6-3.38-7.67-.4.4-.13.21-.32.54-.47.81.22.32-.58.63-.61-.41-.21-.06-.5-.89-.33-.95-1.09-1.64-1.13-2.71-4.88-8.85-9.85-24.69-7.46-41.77.2-2.27.1-1.34 1.48-1.86.67-2.06.92-9.54 1.16-10.62.54-2.48 3.1-7.93 3.13-8.64 1.35-1.29.58-2.33 4.06-5.11 1.12-.89 1.44-1.03 2.29-2.27.69-1.01 1.24-1.7 1.89-2.67.69-1.02 1.45-1.52 2.23-2.34 2.21-2.32 1.17-1.86 3.45-3.41.54-.37 1.12-.57 1.47-.8l2.15-2.52 4.26-3.64 11.58-8.01c.85-.51 1.85-.89 2.57-1.41l.09-.33c.01-.04.07-.25.09-.31.24-.61.4-.65 1.62-1.21.89-.41 1.65-.75 2.61-1.17 1.48-.71 4.44-1.24 5.44-2.05zm42.98-7.67c.93-.16.61-.36 1.57-.61.5-.13 1.22-.19 1.86-.27l.13-.61c-2.5-2.41-3.08-.39-4.59-1.12-1.96-.94-3.52-.19-5.24-.71-.69-.21-1.89-1.42-4.66-.46-1.64.56-3.64-.08-5.68-.06l.53 1.86c.69-.08 3.25-.57 3.82-.27-.45.79-1.49.49-2.86.52-1.24.03-.82.05-.93.19-.92 1.69 2.91 1.16 3.97.99 3.91-.63 3.45-1.22 4.23.35 1.02.09 1.4 0 2.31-.11 1.13-.14 2.6.69 4.57.47 1.17-.15.26-.56.97-.16zm-72.86 135.7c-.45-.25-.22-.68-.74-1.3-1.69-2.05-.64.13-1.55-3.2-.24-.89-.58-1.01-.66-1.84l1.16-.75c-.18-.99-.21.09-.75-2.08-.2-.81-.72-1.12-1.67-1.09-.99 1.4-.66 2.26-1.8 2.62-.16-.34-.37-.86-.52-1.4-.3-1.12-.01-.26.38-1.23-3.04-.4-2.19 1.03-1.14 2.41.79 1.04 1.44 2.14 2.18 2.96.8.87 4.16 4.88 5.11 4.9zm110.55 35.88c.02-.93.04-.42.28-.72l.52-.42c-.73-.42-2.32 1.52-2.81 1.91-.73.59-2.5 1.7-3.76 1.13.37-.37 1.74-.71 2.28-.91-.29-.21.02-.1-.46-.19-.28-.05-.39-.04-.68-.01-4.8.45-2.73 2.23-6.51 3.95 1.03.63 3.41-.91 4.1-1.4 1.31-.92 3.22-.79 4.93-.36-.78.73-.79.24-1.51.62 1.36 1.15 2.46.48 3.33-.57-.44-.29-.76.17-1.67-.62.32-.66 7.22-3.96 8.07-4.64-2.94-.2-1.98.71-3.27 1.01-1.73.41-1.72 1.84-2.84 1.22zm-7.11-13.66-.19 1c.64.15.47.03.67.04.65.02.29-.11.59.07-.45.86-.24-.58-1.22.62-.91 1.11-.44.31-1.34.97-.24.17-.37.35-.43.72l.05.66c.16.71.27.91 1.26 1.39.44-.51.54-.61.14-1.12.05-.03.13-.1.15-.06 0 0 .45-.05.65-.51l-.92-.13c1.82-.52 1.93-.13 3.82-1.17 1.12-.62 2.11-1.39 3.17-1.98-.86-.43-.53.33-.97-.53.22-.43.15-.21.4-.44.14-.13.05.1.39-.33l-2.06.94c-.3-.57-.84-1.25.31-1.28 1.06-.02 1.35.39 1.62-.9l-3.52 1.16c-.78.34-.08-.18-.71.45-1.39 1.39-.93.93-1.86.43z" style="fill-rule:evenodd;clip-rule:evenodd;fill:url(#a)"/><path d="M67.5 230.55h24.16c2.98 0 22.98-.42 23.96.25.53.57.33 1.81.33 2.86 0 1.77.3 8.22-.33 8.76-1 .51-43.07.21-48.12.21v36.4l12.14-.01v-24.23l22.32-.03 14.02 24.26 13.97.01c-.78-2.18-13.37-22.72-13.77-24.26 4.42-.13 7.2-2.11 9.15-4.38 2.67-3.11 2.81-5.98 2.81-10.85 0-7.87 1.48-16.11-7.07-20.09-3.37-1.57-8.33-1.11-12.48-1.11H67.5v12.21zm147.9-.08 41.84.07c-.51.81-4.93 4.41-6.02 5.38-.94.84-1.95 1.72-2.96 2.55l-15.13 13.03c-4.91 3.98-10.17 8.99-15.02 12.93-.55.45-.98.89-1.54 1.31-.62.47-1.1.66-1.16 1.76-.21 3.53.02 7.85.01 11.47l60.59.02V266.9l-41.86-.04c.43-.72 4.88-4.36 5.86-5.25.97-.88 1.93-1.65 2.97-2.54 1-.86 2.02-1.81 3.07-2.64l4.51-3.86c5.24-4.6 11.99-10.05 16.75-14.45l6.02-5.2c1.37-1.12 2.63-1.87 2.69-3.06.16-3.28.12-8.15-.04-11.45-4.85-.22-10.14-.02-15.04-.02-6.78 0-44.22-.3-45.53.14l-.01 11.94zm217.1 48.52v-60.61h-12.04l-.1 41.8c-1.02-.54-19.53-22.49-21.04-24.15-4.07-4.45-9.07-10.92-13.02-15.13-.45-.48-.86-.96-1.33-1.52-.52-.63-.52-1.01-1.71-1.02-3.59-.03-7.76-.15-11.29.03l-.1 60.51 12.18.09v-41.85c.81.53 27.7 32 31.63 36.54l4.65 5.27 12.17.04zm-139.58 0 60.59.05-.01-12.17-22.07.01-26.29-.02-.07-12.06 26.15-.02 22.31-.08-.02-12.07-23.42.02-37.17-.03v36.37zm-118.26.01 2.16-.04c.04-11.45.07-9.42-.01-22.29-.01-2.67.64-2.89 3.06-6.12 1.44-1.92 22.86-31.34 23.13-32.15h-14.97l-17.26 23.84c-.57-.61-3.32-4.32-3.58-5.01-.9-.79-2.66-3.59-3.48-4.68-1.2-1.6-2.27-3.04-3.37-4.62-.86-1.24-6.46-8.74-6.63-9.46l-15.11-.07c.25.79 16.2 22.8 18.03 25.23 1.59 2.11 3.04 4.23 4.55 6.29.82 1.11 1.44 2.02 2.23 3.1 1.33 1.83 1.29 1.35 1.28 4.23-.02 7.01-.31 14.77 0 21.68l9.97.07zm118.27-60.61-.04 12.16 35.18.02 25.45-.07-.09-12.18-60.5.07z" style="fill-rule:evenodd;clip-rule:evenodd;fill:#121210"/></svg>