<svg xmlns="http://www.w3.org/2000/svg" xmlns:xlink="http://www.w3.org/1999/xlink" id="svg8" version="1.1" viewBox="0 0 280.07 280.07"><defs id="defs2"><filter id="filter5169" style="color-interpolation-filters:sRGB"><feFlood id="feFlood5159" flood-color="#000" flood-opacity=".498" result="flood"/><feComposite id="feComposite5161" in="flood" in2="SourceGraphic" operator="in" result="composite1"/><feGaussianBlur id="feGaussianBlur5163" in="composite1" result="blur" stdDeviation=".5"/><feOffset id="feOffset5165" dx="0" dy="1.6" result="offset"/><feComposite id="feComposite5167" in="SourceGraphic" in2="offset" operator="over" result="composite2"/></filter><filter id="filter5291" style="color-interpolation-filters:sRGB"><feGaussianBlur id="feGaussianBlur5289" result="blur" stdDeviation="2 2"/></filter><filter id="filter5169-6" style="color-interpolation-filters:sRGB"><feFlood id="feFlood5159-2" flood-color="#000" flood-opacity=".498" result="flood"/><feComposite id="feComposite5161-9" in="flood" in2="SourceGraphic" operator="in" result="composite1"/><feGaussianBlur id="feGaussianBlur5163-4" in="composite1" result="blur" stdDeviation=".5"/><feOffset id="feOffset5165-3" dx="0" dy="1.6" result="offset"/><feComposite id="feComposite5167-7" in="SourceGraphic" in2="offset" operator="over" result="composite2"/></filter><filter id="filter5291-4" style="color-interpolation-filters:sRGB"><feGaussianBlur id="feGaussianBlur5289-3" result="blur" stdDeviation="2 2"/></filter><filter id="filter5169-0" style="color-interpolation-filters:sRGB"><feFlood id="feFlood5159-4" flood-color="#000" flood-opacity=".498" result="flood"/><feComposite id="feComposite5161-94" in="flood" in2="SourceGraphic" operator="in" result="composite1"/><feGaussianBlur id="feGaussianBlur5163-9" in="composite1" result="blur" stdDeviation=".5"/><feOffset id="feOffset5165-2" dx="0" dy="1.6" result="offset"/><feComposite id="feComposite5167-8" in="SourceGraphic" in2="offset" operator="over" result="composite2"/></filter><filter id="filter5291-9" style="color-interpolation-filters:sRGB"><feGaussianBlur id="feGaussianBlur5289-1" result="blur" stdDeviation="2 2"/></filter><filter id="filter5169-6-8" style="color-interpolation-filters:sRGB"><feFlood id="feFlood5159-2-9" flood-color="#000" flood-opacity=".498" result="flood"/><feComposite id="feComposite5161-9-6" in="flood" in2="SourceGraphic" operator="in" result="composite1"/><feGaussianBlur id="feGaussianBlur5163-4-5" in="composite1" result="blur" stdDeviation=".5"/><feOffset id="feOffset5165-3-3" dx="0" dy="1.6" result="offset"/><feComposite id="feComposite5167-7-9" in="SourceGraphic" in2="offset" operator="over" result="composite2"/></filter><filter id="filter5291-4-3" style="color-interpolation-filters:sRGB"><feGaussianBlur id="feGaussianBlur5289-3-3" result="blur" stdDeviation="2 2"/></filter><filter id="filter5169-2" style="color-interpolation-filters:sRGB"><feFlood id="feFlood5159-48" flood-color="#000" flood-opacity=".498" result="flood"/><feComposite id="feComposite5161-93" in="flood" in2="SourceGraphic" operator="in" result="composite1"/><feGaussianBlur id="feGaussianBlur5163-3" in="composite1" result="blur" stdDeviation=".5"/><feOffset id="feOffset5165-9" dx="0" dy="1.6" result="offset"/><feComposite id="feComposite5167-0" in="SourceGraphic" in2="offset" operator="over" result="composite2"/></filter><filter id="filter5291-2" style="color-interpolation-filters:sRGB"><feGaussianBlur id="feGaussianBlur5289-0" result="blur" stdDeviation="2 2"/></filter><filter id="filter5169-6-3" style="color-interpolation-filters:sRGB"><feFlood id="feFlood5159-2-0" flood-color="#000" flood-opacity=".498" result="flood"/><feComposite id="feComposite5161-9-9" in="flood" in2="SourceGraphic" operator="in" result="composite1"/><feGaussianBlur id="feGaussianBlur5163-4-8" in="composite1" result="blur" stdDeviation=".5"/><feOffset id="feOffset5165-3-9" dx="0" dy="1.6" result="offset"/><feComposite id="feComposite5167-7-5" in="SourceGraphic" in2="offset" operator="over" result="composite2"/></filter><filter id="filter5291-4-4" style="color-interpolation-filters:sRGB"><feGaussianBlur id="feGaussianBlur5289-3-7" result="blur" stdDeviation="2 2"/></filter><filter id="filter5169-1" style="color-interpolation-filters:sRGB"><feFlood id="feFlood5159-5" flood-color="#000" flood-opacity=".498" result="flood"/><feComposite id="feComposite5161-8" in="flood" in2="SourceGraphic" operator="in" result="composite1"/><feGaussianBlur id="feGaussianBlur5163-6" in="composite1" result="blur" stdDeviation=".5"/><feOffset id="feOffset5165-5" dx="0" dy="1.6" result="offset"/><feComposite id="feComposite5167-6" in="SourceGraphic" in2="offset" operator="over" result="composite2"/></filter><filter id="filter5291-3" style="color-interpolation-filters:sRGB"><feGaussianBlur id="feGaussianBlur5289-34" result="blur" stdDeviation="2 2"/></filter><filter id="filter5169-6-0" style="color-interpolation-filters:sRGB"><feFlood id="feFlood5159-2-7" flood-color="#000" flood-opacity=".498" result="flood"/><feComposite id="feComposite5161-9-7" in="flood" in2="SourceGraphic" operator="in" result="composite1"/><feGaussianBlur id="feGaussianBlur5163-4-6" in="composite1" result="blur" stdDeviation=".5"/><feOffset id="feOffset5165-3-0" dx="0" dy="1.6" result="offset"/><feComposite id="feComposite5167-7-54" in="SourceGraphic" in2="offset" operator="over" result="composite2"/></filter><filter id="filter5291-4-41" style="color-interpolation-filters:sRGB"><feGaussianBlur id="feGaussianBlur5289-3-0" result="blur" stdDeviation="2 2"/></filter><filter id="filter5169-67" style="color-interpolation-filters:sRGB"><feFlood id="feFlood5159-9" flood-color="#000" flood-opacity=".498" result="flood"/><feComposite id="feComposite5161-2" in="flood" in2="SourceGraphic" operator="in" result="composite1"/><feGaussianBlur id="feGaussianBlur5163-5" in="composite1" result="blur" stdDeviation=".5"/><feOffset id="feOffset5165-6" dx="0" dy="1.6" result="offset"/><feComposite id="feComposite5167-5" in="SourceGraphic" in2="offset" operator="over" result="composite2"/></filter><filter id="filter5291-91" style="color-interpolation-filters:sRGB"><feGaussianBlur id="feGaussianBlur5289-8" result="blur" stdDeviation="2 2"/></filter><filter id="filter5169-6-9" style="color-interpolation-filters:sRGB"><feFlood id="feFlood5159-2-76" flood-color="#000" flood-opacity=".498" result="flood"/><feComposite id="feComposite5161-9-3" in="flood" in2="SourceGraphic" operator="in" result="composite1"/><feGaussianBlur id="feGaussianBlur5163-4-1" in="composite1" result="blur" stdDeviation=".5"/><feOffset id="feOffset5165-3-4" dx="0" dy="1.6" result="offset"/><feComposite id="feComposite5167-7-3" in="SourceGraphic" in2="offset" operator="over" result="composite2"/></filter><filter id="filter5291-4-35" style="color-interpolation-filters:sRGB"><feGaussianBlur id="feGaussianBlur5289-3-6" result="blur" stdDeviation="2 2"/></filter><filter id="filter5169-0-4" style="color-interpolation-filters:sRGB"><feFlood id="feFlood5159-4-2" flood-color="#000" flood-opacity=".498" result="flood"/><feComposite id="feComposite5161-94-9" in="flood" in2="SourceGraphic" operator="in" result="composite1"/><feGaussianBlur id="feGaussianBlur5163-9-1" in="composite1" result="blur" stdDeviation=".5"/><feOffset id="feOffset5165-2-8" dx="0" dy="1.6" result="offset"/><feComposite id="feComposite5167-8-9" in="SourceGraphic" in2="offset" operator="over" result="composite2"/></filter><filter id="filter5291-9-9" style="color-interpolation-filters:sRGB"><feGaussianBlur id="feGaussianBlur5289-1-3" result="blur" stdDeviation="2 2"/></filter><filter id="filter5169-6-8-5" style="color-interpolation-filters:sRGB"><feFlood id="feFlood5159-2-9-0" flood-color="#000" flood-opacity=".498" result="flood"/><feComposite id="feComposite5161-9-6-7" in="flood" in2="SourceGraphic" operator="in" result="composite1"/><feGaussianBlur id="feGaussianBlur5163-4-5-0" in="composite1" result="blur" stdDeviation=".5"/><feOffset id="feOffset5165-3-3-5" dx="0" dy="1.6" result="offset"/><feComposite id="feComposite5167-7-9-9" in="SourceGraphic" in2="offset" operator="over" result="composite2"/></filter><filter id="filter5291-4-3-2" style="color-interpolation-filters:sRGB"><feGaussianBlur id="feGaussianBlur5289-3-3-6" result="blur" stdDeviation="2 2"/></filter><filter id="filter5169-2-3" style="color-interpolation-filters:sRGB"><feFlood id="feFlood5159-48-3" flood-color="#000" flood-opacity=".498" result="flood"/><feComposite id="feComposite5161-93-7" in="flood" in2="SourceGraphic" operator="in" result="composite1"/><feGaussianBlur id="feGaussianBlur5163-3-8" in="composite1" result="blur" stdDeviation=".5"/><feOffset id="feOffset5165-9-7" dx="0" dy="1.6" result="offset"/><feComposite id="feComposite5167-0-3" in="SourceGraphic" in2="offset" operator="over" result="composite2"/></filter><filter id="filter5291-2-9" style="color-interpolation-filters:sRGB"><feGaussianBlur id="feGaussianBlur5289-0-4" result="blur" stdDeviation="2 2"/></filter><filter id="filter5169-6-3-5" style="color-interpolation-filters:sRGB"><feFlood id="feFlood5159-2-0-3" flood-color="#000" flood-opacity=".498" result="flood"/><feComposite id="feComposite5161-9-9-5" in="flood" in2="SourceGraphic" operator="in" result="composite1"/><feGaussianBlur id="feGaussianBlur5163-4-8-6" in="composite1" result="blur" stdDeviation=".5"/><feOffset id="feOffset5165-3-9-7" dx="0" dy="1.6" result="offset"/><feComposite id="feComposite5167-7-5-7" in="SourceGraphic" in2="offset" operator="over" result="composite2"/></filter><filter id="filter5291-4-4-4" style="color-interpolation-filters:sRGB"><feGaussianBlur id="feGaussianBlur5289-3-7-9" result="blur" stdDeviation="2 2"/></filter><linearGradient id="linearGradient1671"><stop id="stop1667" offset="0" style="stop-color:#fff;stop-opacity:1"/><stop id="stop1669" offset="1" style="stop-color:#b6cae6;stop-opacity:1"/></linearGradient><linearGradient id="linearGradient1665"><stop id="stop1659" offset="0" style="stop-color:#123787;stop-opacity:1"/><stop id="stop1661" offset=".43" style="stop-color:#2443af;stop-opacity:1"/><stop id="stop1663" offset="1" style="stop-color:#123787;stop-opacity:1"/></linearGradient><linearGradient id="linearGradient1280"><stop id="stop1276" offset="0" style="stop-color:#ff5700;stop-opacity:1"/><stop id="stop1293" offset=".5" style="stop-color:#9500d4;stop-opacity:.98431373"/><stop id="stop1278" offset="1" style="stop-color:#1500e8;stop-opacity:.969697"/></linearGradient><linearGradient xlink:href="#linearGradient1280" id="linearGradient1290" x1="87.855" x2="87.855" y1="569.662" y2="405.377" gradientTransform="translate(-62.34 -55.917) scale(.26458)" gradientUnits="userSpaceOnUse"/><linearGradient id="linear-gradient" x1="78.27" x2="79.03" y1="77.33" y2="77.33" gradientTransform="rotate(90 176.66 -22991.042) scale(296.41)" gradientUnits="userSpaceOnUse"><stop id="stop71" offset="0" stop-color="#268bd5"/><stop id="stop73" offset="0" stop-color="#268bd5"/><stop id="stop75" offset="1" stop-color="#00a9ea"/></linearGradient><linearGradient id="linear-gradient-2" x1="78.23" x2="78.99" y1="77.49" y2="77.49" gradientTransform="rotate(90 219.759 -30685.349) scale(394.54)" gradientUnits="userSpaceOnUse"><stop id="stop78" offset="0" stop-color="#00003f"/><stop id="stop80" offset=".45" stop-color="#fff"/><stop id="stop82" offset=".55" stop-color="#dedcdc"/><stop id="stop84" offset="1" stop-color="#00003f"/></linearGradient><linearGradient id="linear-gradient-3" x1="77.18" x2="77.94" y1="78.66" y2="78.66" gradientTransform="rotate(-90 13366.898 -71.098) scale(168.08)" gradientUnits="userSpaceOnUse"><stop id="stop90" offset="0" stop-color="#00a9ea"/><stop id="stop92" offset="1" stop-color="#fff"/></linearGradient><linearGradient id="linear-gradient-3-6" x1="77.18" x2="77.94" y1="78.66" y2="78.66" gradientTransform="rotate(-90 3628.27 -56.923) scale(44.47117)" gradientUnits="userSpaceOnUse"><stop id="stop90-8" offset="0" stop-color="#00a9ea"/><stop id="stop92-1" offset="1" stop-color="#fff"/></linearGradient><linearGradient id="linearGradient939"><stop id="stop935" offset="0" style="stop-color:#fff;stop-opacity:1"/><stop id="stop937" offset="1" style="stop-color:#afd5f4;stop-opacity:1"/></linearGradient><linearGradient xlink:href="#linearGradient1671" id="linearGradient6112" x1="545.059" x2="545.059" y1="-1107.077" y2="-1049.556" gradientTransform="matrix(.99853 0 0 .9373 -435.026 1154.188)" gradientUnits="userSpaceOnUse"/><linearGradient xlink:href="#linearGradient939" id="linearGradient6110" x1="545.059" x2="545.059" y1="-1107.077" y2="-1049.556" gradientTransform="matrix(.96505 0 0 .95604 -417.26 1173.862)" gradientUnits="userSpaceOnUse"/><linearGradient xlink:href="#linearGradient939" id="linearGradient6108" x1="545.059" x2="545.059" y1="-1107.077" y2="-1049.556" gradientTransform="matrix(.97047 0 0 .9373 -423.02 1154.188)" gradientUnits="userSpaceOnUse"/><linearGradient xlink:href="#linearGradient1665" id="linearGradient1145" x1="-407.572" x2="650.959" y1="-112.955" y2="945.578" gradientTransform="translate(73.974 33.76) scale(.26457)" gradientUnits="userSpaceOnUse"/><linearGradient xlink:href="#linearGradient1665" id="linearGradient804" x1="-407.572" x2="650.959" y1="-112.955" y2="945.578" gradientTransform="translate(73.974 33.76) scale(.26457)" gradientUnits="userSpaceOnUse"/><linearGradient xlink:href="#linearGradient939" id="linearGradient806" x1="545.059" x2="545.059" y1="-1107.077" y2="-1049.556" gradientTransform="matrix(.97047 0 0 .9373 -423.02 1154.188)" gradientUnits="userSpaceOnUse"/><linearGradient id="linear-gradient-4" x1="78.27" x2="79.03" y1="77.33" y2="77.33" gradientTransform="rotate(90 176.66 -22991.042) scale(296.41)" gradientUnits="userSpaceOnUse"><stop id="stop71-5" offset="0" stop-color="#268bd5"/><stop id="stop73-3" offset="0" stop-color="#268bd5"/><stop id="stop75-9" offset="1" stop-color="#00a9ea"/></linearGradient><linearGradient id="linear-gradient-2-8" x1="78.23" x2="78.99" y1="77.49" y2="77.49" gradientTransform="rotate(90 219.759 -30685.349) scale(394.54)" gradientUnits="userSpaceOnUse"><stop id="stop78-0" offset="0" stop-color="#00003f"/><stop id="stop80-1" offset=".45" stop-color="#fff"/><stop id="stop82-2" offset=".55" stop-color="#dedcdc"/><stop id="stop84-9" offset="1" stop-color="#00003f"/></linearGradient><clipPath id="clip-path" transform="translate(108 108)"><path id="rect65" d="M0 0h216v216H0z" class="cls-1"/></clipPath><clipPath id="clip-path-3" transform="translate(108 108)"><path id="rect68" d="M0 0h216v216H0z" class="cls-1"/></clipPath><clipPath id="clip-path-8" transform="translate(108 108)"><path id="path87" d="M118.73 93.88h14.19a6.6 6.6 0 0 1 0 13.19h-14.19Zm-6.3-5.73v40.14h6.3v-15.48h12.76l8.6 15.48H147l-9.18-16.06s8-2.86 8-11.75c0-6.88-5.45-12.33-12.9-12.33Zm-90.81 20.07c0 11.47 9.18 20.64 21.22 20.64a21.41 21.41 0 0 0 16.63-8l-4-4a16 16 0 0 1-12.61 6.31 14.91 14.91 0 0 1 0-29.82 15.29 15.29 0 0 1 12.33 6l4-4a20.68 20.68 0 0 0-16.34-7.74c-12 0-21.22 9.17-21.22 20.64m48 0a14.91 14.91 0 1 1 14.91 14.91 14.8 14.8 0 0 1-14.91-14.91m-6.31 0c0 11.47 9.18 20.64 21.22 20.64s21.22-9.17 21.22-20.64-9.2-20.67-21.24-20.67-21.22 9.17-21.22 20.64m109.9-14.91a14.78 14.78 0 0 1 14.66 12.17h-29.32a14.78 14.78 0 0 1 14.66-12.17M152 108.22c0 11.47 9.18 20.64 21.22 20.64 8.84 0 14.37-3.46 18.11-7.88l-4.88-3.74c-3.45 4.31-7.79 6-13.23 6a14.87 14.87 0 0 1-14.63-12.13h35.65a22.7 22.7 0 0 0 .2-2.88c0-11.47-9.18-20.64-21.22-20.64S152 96.75 152 108.22" class="cls-1"/></clipPath><clipPath id="clip-path-82" transform="translate(108 108)"><path id="rect65-1" d="M0 0h216v216H0z" class="cls-1"/></clipPath><clipPath id="clip-path-3-9" transform="translate(108 108)"><path id="rect68-1" d="M0 0h216v216H0z" class="cls-1"/></clipPath><clipPath id="clip-path-8-8" transform="translate(108 108)"><path id="path87-2" d="M118.73 93.88h14.19a6.6 6.6 0 0 1 0 13.19h-14.19Zm-6.3-5.73v40.14h6.3v-15.48h12.76l8.6 15.48H147l-9.18-16.06s8-2.86 8-11.75c0-6.88-5.45-12.33-12.9-12.33Zm-90.81 20.07c0 11.47 9.18 20.64 21.22 20.64a21.41 21.41 0 0 0 16.63-8l-4-4a16 16 0 0 1-12.61 6.31 14.91 14.91 0 0 1 0-29.82 15.29 15.29 0 0 1 12.33 6l4-4a20.68 20.68 0 0 0-16.34-7.74c-12 0-21.22 9.17-21.22 20.64m48 0a14.91 14.91 0 1 1 14.91 14.91 14.8 14.8 0 0 1-14.91-14.91m-6.31 0c0 11.47 9.18 20.64 21.22 20.64s21.22-9.17 21.22-20.64-9.2-20.67-21.24-20.67-21.22 9.17-21.22 20.64m109.9-14.91a14.78 14.78 0 0 1 14.66 12.17h-29.32a14.78 14.78 0 0 1 14.66-12.17M152 108.22c0 11.47 9.18 20.64 21.22 20.64 8.84 0 14.37-3.46 18.11-7.88l-4.88-3.74c-3.45 4.31-7.79 6-13.23 6a14.87 14.87 0 0 1-14.63-12.13h35.65a22.7 22.7 0 0 0 .2-2.88c0-11.47-9.18-20.64-21.22-20.64S152 96.75 152 108.22" class="cls-1"/></clipPath><style id="style63">.cls-1{fill:none}</style></defs><g id="layer1" transform="translate(33.86 -3.876)"><g id="g1966"><path id="rect1140" d="M-33.86 3.876h280.07v280.07H-33.86Z" style="fill:#1c57bb;fill-opacity:1;stroke:none;stroke-width:6.6;stroke-linecap:round;stroke-linejoin:round;stroke-miterlimit:4;stroke-dasharray:none;stroke-opacity:1;paint-order:normal"/><path id="path1149" d="M-33.86 3.876v215.51h215.511V3.877Z" style="fill:url(#linearGradient804);fill-opacity:1;stroke:none;stroke-width:11.9287;stroke-linecap:round;stroke-linejoin:round;stroke-miterlimit:4;stroke-dasharray:none;stroke-opacity:1;paint-order:normal"/><path id="rect4" d="M-2.579 28.915h6.873v6.873H-2.58z" style="fill:#fff;fill-opacity:1;stroke-width:.244587"/><path id="path1090" d="M4.123 64.723V39.946h-6.53v24.752h6.53z" style="fill:#fff;stroke-width:.244587"/><path id="path1088" d="M47.366 64.967v-6.065c-.954 0-1.761-.05-2.348-.147-.685-.098-1.199-.342-1.541-.685-.343-.342-.563-.831-.685-1.492-.098-.611-.147-1.418-.147-2.397v-8.634h4.72v-5.6h-4.72V30.31h-6.53v23.945c0 2.03.17 3.742.513 5.111.343 1.346.93 2.446 1.737 3.278.807.831 1.883 1.418 3.18 1.785 1.32.367 2.983.538 4.965.538z" style="fill:#fff;stroke-width:.244587"/><path id="path1086" d="M84.738 64.723V28.402h-6.53v36.32Z" style="fill:#fff;stroke-width:.244587"/><path id="path1084" d="M29.829 42.392c-1.81-1.957-4.354-2.935-7.582-2.935-1.566 0-3.009.318-4.28.954a9.24 9.24 0 0 0-3.254 2.641l-.342.465v-3.571H7.938v24.752h6.482V51.515v.905-.44c.073-2.324.636-4.036 1.712-5.136 1.15-1.174 2.544-1.761 4.133-1.761 1.884 0 3.327.587 4.28 1.712.93 1.125 1.42 2.715 1.42 4.745v13.158h6.579V50.66c.024-3.522-.905-6.31-2.715-8.267z" style="fill:#fff;stroke-width:.244587"/><path id="path1080" d="M55.437 50.023c0-1.81 2.079-4.965 6.555-4.99 4.476 0 6.58 3.156 6.58 4.966zm19.396 2.275c0-1.786-.318-3.449-.93-5.014a13.423 13.423 0 0 0-2.617-4.085c-1.125-1.174-2.47-2.079-4.035-2.74-1.566-.66-3.302-.977-5.186-.977a12.87 12.87 0 0 0-5.038 1.002c-1.566.685-2.935 1.59-4.085 2.74a12.758 12.758 0 0 0-2.74 4.084c-.684 1.566-1.002 3.253-1.002 5.039 0 1.785.318 3.473.954 5.038a12.57 12.57 0 0 0 2.666 4.085c1.125 1.15 2.52 2.079 4.133 2.74 1.615.684 3.4 1.027 5.308 1.027 5.528 0 8.952-2.52 11.006-4.868l-4.696-3.57c-.978 1.173-3.326 2.763-6.261 2.763-1.835 0-3.351-.416-4.5-1.272-1.15-.831-1.933-2.005-2.349-3.448l-.073-.22h19.445z" style="fill:#fff;stroke-width:.244587"/><path id="path1076" d="M95.11 62.488a2.88 2.88 0 0 1-.626.957 2.88 2.88 0 0 1-.958.626 3.054 3.054 0 0 1-1.179.221 3.19 3.19 0 0 1-1.178-.22 2.88 2.88 0 0 1-.958-.627 2.88 2.88 0 0 1-.626-.957 3.055 3.055 0 0 1-.221-1.179c0-.405.074-.81.22-1.179.148-.368.37-.7.627-.957a2.88 2.88 0 0 1 .958-.626 3.054 3.054 0 0 1 1.178-.221c.406 0 .81.073 1.179.22.368.148.7.369.958.627.257.258.478.59.626.957.147.369.22.737.22 1.179 0 .442-.073.81-.22 1.179zm.59-2.579a3.48 3.48 0 0 0-.774-1.141c-.332-.332-.7-.59-1.142-.774a3.666 3.666 0 0 0-1.4-.295c-.515 0-.957.111-1.4.295-.441.184-.81.442-1.141.774-.332.331-.59.7-.774 1.141a3.67 3.67 0 0 0-.294 1.4c0 .516.11.958.294 1.4.184.442.442.81.774 1.141.331.332.7.59 1.142.774.442.184.92.295 1.4.295.515 0 .957-.111 1.399-.295.442-.184.81-.442 1.142-.774.331-.331.589-.7.773-1.141a3.67 3.67 0 0 0 .295-1.4c0-.479-.11-.958-.295-1.4z" style="fill:#fff;stroke-width:.36832"/><path id="path6" d="M92.642 61.014h-.921v-1.178h.921c.11 0 .221.037.332.073.11.037.184.11.22.185.074.073.074.184.074.331a.737.737 0 0 1-.074.332.974.974 0 0 1-.22.184 1.072 1.072 0 0 1-.332.073zm.405.626a1.14 1.14 0 0 0 .7-.331c.184-.184.295-.442.295-.81 0-.405-.11-.7-.369-.921-.22-.221-.626-.332-1.105-.332h-1.62v4.162h.773v-1.694h.553l1.031 1.694h.81z" style="fill:#fff;stroke-width:.36832"/><path id="rect1134" d="M181.653 219.388v64.558h64.557v-64.558z" style="fill:url(#linearGradient1145);fill-opacity:1;stroke:none;stroke-width:11.9287;stroke-linecap:round;stroke-linejoin:round;stroke-miterlimit:4;stroke-dasharray:none;stroke-opacity:1;paint-order:normal"/><path id="rect73-5" d="M197.742 235.549h6.49v6.943h-6.49zm0 11.345h6.49v20.958h-6.49z" style="fill:#fff;fill-rule:evenodd;stroke-width:0"/><path id="rect73-5-1" d="M220.126 234.81c-6.337 0-11.57 5.11-11.57 11.377 0 6.19 5.104 11.246 11.335 11.371l-5.604 10.294h7.408l8.732-16.112c.949-1.648 1.27-3.533 1.27-5.553 0-6.267-5.233-11.377-11.57-11.377zm0 5.781c3.222 0 5.74 2.49 5.74 5.596 0 3.108-2.518 5.596-5.74 5.596-3.222 0-5.739-2.488-5.739-5.596 0-3.107 2.517-5.596 5.74-5.596z" style="fill:#fff;fill-rule:evenodd;stroke-width:0"/><g id="g110"><path id="path1096" d="M214.577 118.166v.422h1.321v3.78h.449v-3.78h1.321v-.422z" style="font-style:normal;font-variant:normal;font-weight:400;font-stretch:normal;font-size:6.00061px;line-height:1.25;font-family:&quot;TT Norms&quot;;-inkscape-font-specification:&quot;TT Norms&quot;;letter-spacing:0;word-spacing:0;fill:#fff;fill-opacity:1;stroke:none;stroke-width:.150015"/><path id="path1098" d="M222.227 118.948v3.42h.448v-4.202h-.39l-1.74 2.282-1.74-2.282h-.39v4.201h.451v-3.419l1.68 2.218z" style="font-style:normal;font-variant:normal;font-weight:400;font-stretch:normal;font-size:6.00061px;line-height:1.25;font-family:&quot;TT Norms&quot;;-inkscape-font-specification:&quot;TT Norms&quot;;letter-spacing:0;word-spacing:0;fill:#fff;fill-opacity:1;stroke:none;stroke-width:.150015"/></g><path id="path6097" d="M4.518 144.28q0 7.896 4.95 13.186 5.027 5.289 12.529 5.289 4.95 0 8.852-2.246 3.9-2.319 6.676-6.81l7.127 4.129q-3.3 6.086-9.377 9.564-6.002 3.478-13.578 3.478-11.778 0-19.355-7.463-7.501-7.463-7.501-18.983 0-11.303 7.876-18.91 7.877-7.68 19.655-7.68 7.577 0 13.203 3.333 5.701 3.26 8.927 9.418l-7.427 4.493q-2.775-4.71-6.376-6.884-3.526-2.246-8.552-2.246-7.652 0-12.678 5.217-4.951 5.217-4.951 13.114z" style="font-style:normal;font-variant:normal;font-weight:500;font-stretch:normal;font-size:73.724px;line-height:1.25;font-family:&quot;IntelOneALT Display&quot;;-inkscape-font-specification:&quot;IntelOneALT Display Medium&quot;;letter-spacing:0;word-spacing:0;fill:url(#linearGradient806);fill-opacity:1;stroke:none;stroke-width:1.8431"/><path id="path6099" d="M48.466 144.424q0-11.303 7.802-18.91 7.802-7.68 19.504-7.68 11.703 0 19.43 7.607 7.727 7.535 7.727 18.838t-7.802 18.983q-7.802 7.608-19.43 7.608-11.702 0-19.504-7.536-7.727-7.607-7.727-18.91zm9.677-.145q0 7.898 5.026 13.187 5.027 5.289 12.603 5.289 7.502 0 12.453-5.217t4.951-13.114q0-7.825-5.026-13.114-5.026-5.362-12.453-5.362-7.576 0-12.603 5.217-4.95 5.217-4.95 13.114z" style="font-style:normal;font-variant:normal;font-weight:500;font-stretch:normal;font-size:73.724px;line-height:1.25;font-family:&quot;IntelOneALT Display&quot;;-inkscape-font-specification:&quot;IntelOneALT Display Medium&quot;;letter-spacing:0;word-spacing:0;fill:url(#linearGradient6108);fill-opacity:1;stroke:none;stroke-width:1.8431"/><path id="path6101" d="m143.507 148.5 13.8 21.21h-11.264l-12.383-19.658h-12.01v19.658h-9.474v-51.73h24.095q9.4 0 14.547 4.138 5.147 4.064 5.147 11.529 0 5.616-3.282 9.459-3.208 3.843-9.176 5.395zm2.76-14.558q0-3.769-2.61-5.764-2.612-2.07-7.535-2.07H121.65v15.89h14.099q4.923 0 7.683-2.144 2.835-2.143 2.835-5.912z" style="font-style:normal;font-variant:normal;font-weight:500;font-stretch:normal;font-size:73.724px;line-height:1.25;font-family:&quot;IntelOneALT Display&quot;;-inkscape-font-specification:&quot;IntelOneALT Display Medium&quot;;letter-spacing:0;word-spacing:0;fill:url(#linearGradient6110);fill-opacity:1;stroke:none;stroke-width:1.85622"/><path id="path6103" d="M192.245 162.61q5.017 0 9.108-1.812 4.168-1.883 8.259-5.94l5.711 5.94q-4.785 5-10.806 7.536-5.943 2.536-12.967 2.536-12.273 0-20.146-7.39-7.795-7.463-7.795-19.056 0-11.23 7.795-18.91 7.796-7.68 19.529-7.68 11.963 0 19.373 7.318 7.41 7.245 7.41 18.837 0 1.015-.154 2.029-.077.942-.309 2.101h-43.379q1.158 6.593 6.175 10.578 5.095 3.913 12.196 3.913zm-1.235-36.734q-6.561 0-11.27 3.985-4.708 3.912-5.866 10.506h33.73q-.926-6.811-5.325-10.651-4.4-3.84-11.27-3.84z" style="font-style:normal;font-variant:normal;font-weight:500;font-stretch:normal;font-size:73.724px;line-height:1.25;font-family:&quot;IntelOneALT Display&quot;;-inkscape-font-specification:&quot;IntelOneALT Display Medium&quot;;letter-spacing:0;word-spacing:0;fill:url(#linearGradient6112);fill-opacity:1;stroke:none;stroke-width:1.86955"/></g></g></svg>