<svg xmlns="http://www.w3.org/2000/svg" xmlns:xlink="http://www.w3.org/1999/xlink" id="svg8" version="1.1" viewBox="0 0 280.07 280.07" xml:space="preserve"><defs id="defs2"><linearGradient id="linearGradient3000"><stop id="stop2996" offset="0" style="stop-color:#fff;stop-opacity:1"/><stop id="stop2998" offset="1" style="stop-color:#c6e5f1;stop-opacity:1"/></linearGradient><linearGradient id="linearGradient5002"><stop id="stop4996" offset="0" style="stop-color:#3ea1da;stop-opacity:1"/><stop id="stop4998" offset=".43" style="stop-color:#42b4e8;stop-opacity:1"/><stop id="stop5000" offset="1" style="stop-color:#3ea1da;stop-opacity:1"/></linearGradient><linearGradient id="linearGradient8279"><stop id="stop8275" offset="0" style="stop-color:#3ea2db;stop-opacity:1"/><stop id="stop8314" offset=".43" style="stop-color:#40b3e8;stop-opacity:1"/><stop id="stop8277" offset="1" style="stop-color:#3ea1da;stop-opacity:1"/></linearGradient><linearGradient id="linearGradient1280"><stop id="stop1276" offset="0" style="stop-color:#ff5700;stop-opacity:1"/><stop id="stop1293" offset=".5" style="stop-color:#9500d4;stop-opacity:.98431373"/><stop id="stop1278" offset="1" style="stop-color:#1500e8;stop-opacity:.969697"/></linearGradient><linearGradient id="linearGradient1290" x1="87.855" x2="87.855" y1="569.662" y2="405.377" gradientTransform="translate(-62.34 -55.917) scale(.26458)" gradientUnits="userSpaceOnUse" xlink:href="#linearGradient1280"/><linearGradient id="linearGradient1145" x1="-407.572" x2="650.959" y1="-112.955" y2="945.578" gradientTransform="translate(73.974 33.76) scale(.26457)" gradientUnits="userSpaceOnUse" xlink:href="#linearGradient5002"/><linearGradient id="linearGradient1167" x1="-407.572" x2="650.959" y1="-112.955" y2="945.578" gradientTransform="translate(73.974 33.76) scale(.26457)" gradientUnits="userSpaceOnUse" xlink:href="#linearGradient8279"/><linearGradient id="linearGradient3004" x1="515.388" x2="515.388" y1="344.151" y2="394.841" gradientTransform="matrix(.5809 0 0 .59674 -84.081 -76.519)" gradientUnits="userSpaceOnUse" xlink:href="#linearGradient3000"/><linearGradient id="linearGradient3006" x1="515.388" x2="515.388" y1="344.151" y2="394.841" gradientTransform="matrix(.5809 0 0 .59674 -84.081 -76.519)" gradientUnits="userSpaceOnUse" xlink:href="#linearGradient3000"/><linearGradient id="linearGradient3008" x1="515.388" x2="515.388" y1="344.151" y2="394.841" gradientTransform="matrix(.5809 0 0 .59674 -84.081 -76.519)" gradientUnits="userSpaceOnUse" xlink:href="#linearGradient3000"/><linearGradient id="linearGradient3010" x1="515.388" x2="515.388" y1="344.151" y2="394.841" gradientTransform="matrix(.5809 0 0 .59674 -84.081 -76.519)" gradientUnits="userSpaceOnUse" xlink:href="#linearGradient3000"/><linearGradient id="linearGradient3012" x1="515.388" x2="515.388" y1="344.151" y2="394.841" gradientTransform="matrix(.5809 0 0 .59674 -84.081 -76.519)" gradientUnits="userSpaceOnUse" xlink:href="#linearGradient3000"/><linearGradient id="linearGradient3014" x1="515.388" x2="515.388" y1="344.151" y2="394.841" gradientTransform="matrix(.5809 0 0 .59674 -84.081 -76.519)" gradientUnits="userSpaceOnUse" xlink:href="#linearGradient3000"/><linearGradient id="linearGradient3016" x1="515.388" x2="515.388" y1="344.151" y2="394.841" gradientTransform="matrix(.5809 0 0 .59674 -84.081 -76.519)" gradientUnits="userSpaceOnUse" xlink:href="#linearGradient3000"/><filter id="filter5169" style="color-interpolation-filters:sRGB"><feFlood id="feFlood5159" flood-color="#000" flood-opacity=".498" result="flood"/><feComposite id="feComposite5161" in="flood" in2="SourceGraphic" operator="in" result="composite1"/><feGaussianBlur id="feGaussianBlur5163" in="composite1" result="blur" stdDeviation=".5"/><feOffset id="feOffset5165" dx="0" dy="1.6" result="offset"/><feComposite id="feComposite5167" in="SourceGraphic" in2="offset" operator="over" result="composite2"/></filter><filter id="filter5291" style="color-interpolation-filters:sRGB"><feGaussianBlur id="feGaussianBlur5289" result="blur" stdDeviation="2 2"/></filter><filter id="filter5169-6" style="color-interpolation-filters:sRGB"><feFlood id="feFlood5159-2" flood-color="#000" flood-opacity=".498" result="flood"/><feComposite id="feComposite5161-9" in="flood" in2="SourceGraphic" operator="in" result="composite1"/><feGaussianBlur id="feGaussianBlur5163-4" in="composite1" result="blur" stdDeviation=".5"/><feOffset id="feOffset5165-3" dx="0" dy="1.6" result="offset"/><feComposite id="feComposite5167-7" in="SourceGraphic" in2="offset" operator="over" result="composite2"/></filter><filter id="filter5291-4" style="color-interpolation-filters:sRGB"><feGaussianBlur id="feGaussianBlur5289-3" result="blur" stdDeviation="2 2"/></filter></defs><g id="layer1" transform="translate(33.86 -3.876)"><path id="rect1140" d="M-33.86 3.876h280.07v280.07H-33.86Z" style="opacity:1;fill:#59c4f0;fill-opacity:1;stroke:none;stroke-width:6.60000038;stroke-linecap:round;stroke-linejoin:round;stroke-miterlimit:4;stroke-dasharray:none;stroke-opacity:1;paint-order:normal"/><path id="path1149" d="M-33.86 3.876v215.51h215.511V3.877Z" style="opacity:1;fill:url(#linearGradient1145);fill-opacity:1;stroke:none;stroke-width:11.9286747;stroke-linecap:round;stroke-linejoin:round;stroke-miterlimit:4;stroke-dasharray:none;stroke-opacity:1;paint-order:normal"/><path id="rect1134" d="M181.653 219.388v64.558h64.557v-64.558z" style="opacity:1;fill:url(#linearGradient1167);fill-opacity:1;stroke:none;stroke-width:11.9286747;stroke-linecap:round;stroke-linejoin:round;stroke-miterlimit:4;stroke-dasharray:none;stroke-opacity:1;paint-order:normal"/><path id="rect4" d="M-2.579 28.915h6.873v6.873H-2.58z" style="fill:#fff;fill-opacity:1;stroke-width:.24458669"/><path id="path1090" d="M4.123 64.723V39.946h-6.53v24.752h6.53z" style="fill:#fff;stroke-width:.24458669"/><path id="path1088" d="M47.366 64.967v-6.065c-.954 0-1.761-.05-2.348-.147-.685-.098-1.199-.342-1.541-.685-.343-.342-.563-.831-.685-1.492-.098-.611-.147-1.418-.147-2.397v-8.634h4.72v-5.6h-4.72V30.31h-6.53v23.945c0 2.03.17 3.742.513 5.111.343 1.346.93 2.446 1.737 3.278.807.831 1.883 1.418 3.18 1.785 1.32.367 2.983.538 4.965.538z" style="fill:#fff;stroke-width:.24458669"/><path id="path1086" d="M84.738 64.723V28.402h-6.53v36.32z" style="fill:#fff;stroke-width:.24458669"/><path id="path1084" d="M29.829 42.392c-1.81-1.957-4.354-2.935-7.582-2.935-1.566 0-3.009.318-4.28.954a9.24 9.24 0 0 0-3.254 2.642l-.342.464v-3.571H7.938v24.752h6.482V51.515v.905-.44c.073-2.324.636-4.036 1.712-5.136 1.15-1.174 2.544-1.761 4.133-1.761 1.884 0 3.327.587 4.28 1.712.93 1.125 1.42 2.715 1.42 4.745v13.158h6.579V50.66c.024-3.522-.905-6.31-2.715-8.267z" style="fill:#fff;stroke-width:.24458669"/><path id="path1080" d="M55.437 50.023c0-1.81 2.079-4.965 6.555-4.99 4.476 0 6.58 3.156 6.58 4.966zm19.396 2.275c0-1.786-.318-3.449-.93-5.014a13.423 13.423 0 0 0-2.617-4.085c-1.125-1.174-2.47-2.079-4.035-2.74-1.566-.66-3.302-.977-5.186-.977a12.87 12.87 0 0 0-5.038 1.002c-1.566.685-2.935 1.59-4.085 2.74a12.758 12.758 0 0 0-2.74 4.084c-.684 1.566-1.002 3.253-1.002 5.039 0 1.785.318 3.473.954 5.038a12.57 12.57 0 0 0 2.666 4.085c1.125 1.15 2.52 2.079 4.133 2.74 1.615.684 3.4 1.027 5.308 1.027 5.528 0 8.952-2.52 11.006-4.868l-4.696-3.57c-.978 1.173-3.326 2.763-6.261 2.763-1.835 0-3.351-.416-4.5-1.272-1.15-.831-1.933-2.005-2.349-3.448l-.073-.22h19.445z" style="fill:#fff;stroke-width:.24458669"/><path id="path1076" d="M95.11 62.488a2.88 2.88 0 0 1-.626.957 2.88 2.88 0 0 1-.958.626 3.054 3.054 0 0 1-1.179.221 3.19 3.19 0 0 1-1.178-.22 2.88 2.88 0 0 1-.958-.627 2.88 2.88 0 0 1-.626-.957 3.055 3.055 0 0 1-.221-1.179c0-.405.074-.81.22-1.179.148-.368.37-.7.627-.957a2.88 2.88 0 0 1 .958-.626 3.054 3.054 0 0 1 1.178-.221c.406 0 .81.073 1.179.22.368.148.7.369.958.627.257.258.478.59.626.957.147.369.22.737.22 1.179 0 .442-.073.81-.22 1.179zm.59-2.579a3.48 3.48 0 0 0-.774-1.141c-.332-.332-.7-.59-1.142-.774a3.666 3.666 0 0 0-1.4-.295c-.515 0-.957.111-1.4.295-.441.184-.81.442-1.141.774-.332.331-.59.7-.774 1.141a3.67 3.67 0 0 0-.294 1.4c0 .516.11.958.294 1.4.184.442.442.81.774 1.141.331.332.7.59 1.142.774.442.184.92.295 1.4.295.515 0 .957-.11 1.399-.295.442-.184.81-.442 1.142-.774.331-.331.589-.7.773-1.141a3.67 3.67 0 0 0 .295-1.4c0-.479-.11-.958-.295-1.4z" style="fill:#fff;stroke-width:.36832049"/><path id="path6" d="M92.642 61.014h-.921v-1.178h.921c.11 0 .221.037.331.073a.37.37 0 0 1 .221.185c.074.073.074.184.074.331a.737.737 0 0 1-.074.332.974.974 0 0 1-.22.184 1.072 1.072 0 0 1-.332.073zm.405.626a1.14 1.14 0 0 0 .7-.331c.184-.184.295-.442.295-.81 0-.405-.11-.7-.369-.921-.22-.221-.626-.332-1.105-.332h-1.62v4.162h.773v-1.694h.553l1.031 1.694h.81z" style="fill:#fff;stroke-width:.36832049"/><path id="path1076-9" d="M224.582 132.329a2.88 2.88 0 0 1-.626.958 2.88 2.88 0 0 1-.958.626 3.054 3.054 0 0 1-1.179.22c-.405 0-.81-.073-1.178-.22a2.88 2.88 0 0 1-.958-.626 2.88 2.88 0 0 1-.626-.958 3.055 3.055 0 0 1-.22-1.179c0-.405.073-.81.22-1.178.147-.369.368-.7.626-.958a2.88 2.88 0 0 1 .958-.626 3.054 3.054 0 0 1 1.178-.221c.406 0 .81.074 1.18.22.367.148.699.37.957.627.258.258.479.59.626.958.147.368.22.736.22 1.178 0 .442-.073.81-.22 1.179zm.59-2.578a3.48 3.48 0 0 0-.774-1.142c-.332-.332-.7-.59-1.142-.774a3.666 3.666 0 0 0-1.4-.294c-.515 0-.957.11-1.4.294a3.49 3.49 0 0 0-1.141.774c-.332.331-.59.7-.774 1.142-.184.442-.294.92-.294 1.4 0 .515.11.957.294 1.399.185.442.442.81.774 1.142.331.331.7.589 1.142.773.442.184.92.295 1.4.295.515 0 .957-.11 1.399-.295a3.49 3.49 0 0 0 1.142-.773c.331-.332.589-.7.773-1.142.184-.442.295-.92.295-1.4 0-.479-.11-.957-.295-1.4z" style="fill:#fff;stroke-width:.36832"/><path id="path6-1" d="M222.114 130.856h-.921v-1.179h.921c.11 0 .221.037.332.074.11.037.184.11.22.184.074.074.074.184.074.331a.737.737 0 0 1-.073.332.973.973 0 0 1-.221.184c-.11.037-.221.074-.332.074zm.405.626a1.14 1.14 0 0 0 .7-.332c.184-.184.295-.442.295-.81 0-.405-.11-.7-.369-.92-.22-.222-.626-.332-1.105-.332h-1.62v4.162h.773v-1.695h.553l1.031 1.695h.81z" style="fill:#fff;stroke-width:.36832"/><path id="path6103-8-0-1" d="M44.003 154.806q2.914 0 5.29-1.08 2.422-1.125 4.798-3.546l3.318 3.545q-2.78 2.983-6.277 4.497-3.452 1.513-7.533 1.513-7.129 0-11.702-4.41-4.529-4.453-4.529-11.371 0-6.702 4.529-11.285 4.528-4.583 11.344-4.583 6.95 0 11.254 4.367 4.304 4.324 4.304 11.241 0 .606-.09 1.211-.044.562-.179 1.254H33.332q.672 3.934 3.587 6.312 2.959 2.335 7.084 2.335zm-.717-21.92q-3.812 0-6.547 2.378-2.735 2.334-3.407 6.269h19.594q-.539-4.064-3.094-6.356-2.556-2.291-6.546-2.291z" style="font-style:normal;font-variant:normal;font-weight:500;font-stretch:normal;font-size:73.724px;line-height:1.25;font-family:&quot;IntelOneALT Display&quot;;-inkscape-font-specification:&quot;IntelOneALT Display Medium&quot;;letter-spacing:0;word-spacing:0;fill:url(#linearGradient3004);fill-opacity:1;stroke:none;stroke-width:1.10073"/><path id="path2219-9" d="M63.589 159.097v-30.248h5.564V154.3h16.172v4.797z" style="font-weight:500;font-size:73.615px;font-family:&quot;IntelOne Display&quot;;-inkscape-font-specification:&quot;IntelOne Display Medium&quot;;fill:url(#linearGradient3006);fill-opacity:1;fill-rule:evenodd;stroke-width:3.61182"/><path id="path6097-8" d="M1.839 143.867q0 4.713 2.876 7.87 2.92 3.155 7.277 3.155 2.876 0 5.142-1.34 2.266-1.383 3.879-4.064l4.14 2.464q-1.918 3.632-5.448 5.708-3.486 2.075-7.887 2.075-6.842 0-11.243-4.453-4.358-4.454-4.358-11.328 0-6.745 4.576-11.285 4.575-4.583 11.417-4.583 4.401 0 7.67 1.99 3.312 1.945 5.185 5.62l-4.314 2.68q-1.612-2.81-3.704-4.107-2.048-1.34-4.968-1.34-4.445 0-7.364 3.113-2.876 3.113-2.876 7.825z" style="font-style:normal;font-variant:normal;font-weight:500;font-stretch:normal;font-size:73.724px;line-height:1.25;font-family:&quot;IntelOneALT Display&quot;;-inkscape-font-specification:&quot;IntelOneALT Display Medium&quot;;letter-spacing:0;word-spacing:0;fill:url(#linearGradient3008);fill-opacity:1;stroke:none;stroke-width:1.08515"/><path id="path6099-3" d="M152.17 143.954q0-6.745 4.533-11.285 4.532-4.583 11.33-4.583t11.286 4.54q4.489 4.497 4.489 11.241 0 6.745-4.532 11.328-4.532 4.54-11.287 4.54-6.798 0-11.33-4.497-4.488-4.54-4.488-11.284zm5.622-.087q0 4.713 2.92 7.87 2.92 3.155 7.32 3.155 4.359 0 7.235-3.113 2.876-3.113 2.876-7.825 0-4.67-2.92-7.826-2.92-3.2-7.234-3.2-4.401 0-7.32 3.114-2.877 3.113-2.877 7.825z" style="font-style:normal;font-variant:normal;font-weight:500;font-stretch:normal;font-size:73.724px;line-height:1.25;font-family:&quot;IntelOneALT Display&quot;;-inkscape-font-specification:&quot;IntelOneALT Display Medium&quot;;letter-spacing:0;word-spacing:0;fill:url(#linearGradient3010);fill-opacity:1;stroke:none;stroke-width:1.08515"/><path id="path6101-7" d="m141.605 146.44 8.017 12.657h-6.543l-7.194-11.73h-6.977v11.73h-5.503v-30.87h13.997q5.46 0 8.45 2.47 2.99 2.425 2.99 6.88 0 3.35-1.907 5.644-1.863 2.293-5.33 3.22zm1.604-8.687q0-2.25-1.517-3.44-1.517-1.235-4.377-1.235h-8.407v9.482h8.19q2.86 0 4.464-1.28 1.647-1.278 1.647-3.527z" style="font-style:normal;font-variant:normal;font-weight:500;font-stretch:normal;font-size:73.724px;line-height:1.25;font-family:&quot;IntelOneALT Display&quot;;-inkscape-font-specification:&quot;IntelOneALT Display Medium&quot;;letter-spacing:0;word-spacing:0;fill:url(#linearGradient3012);fill-opacity:1;stroke:none;stroke-width:1.09288"/><path id="path6103-8-0" d="M104.127 154.806q2.914 0 5.29-1.08 2.422-1.125 4.798-3.546l3.318 3.545q-2.78 2.983-6.277 4.497-3.453 1.513-7.533 1.513-7.13 0-11.703-4.41-4.528-4.453-4.528-11.371 0-6.702 4.528-11.285 4.529-4.583 11.344-4.583 6.95 0 11.254 4.367 4.305 4.324 4.305 11.241 0 .606-.09 1.211-.045.562-.18 1.254H93.456q.673 3.934 3.587 6.312 2.96 2.335 7.085 2.335zm-.718-21.92q-3.811 0-6.546 2.378-2.735 2.334-3.408 6.269h19.594q-.538-4.064-3.094-6.356-2.555-2.291-6.546-2.291z" style="font-style:normal;font-variant:normal;font-weight:500;font-stretch:normal;font-size:73.724px;line-height:1.25;font-family:&quot;IntelOneALT Display&quot;;-inkscape-font-specification:&quot;IntelOneALT Display Medium&quot;;letter-spacing:0;word-spacing:0;fill:url(#linearGradient3014);fill-opacity:1;stroke:none;stroke-width:1.10073"/><path id="path2221" d="M192.875 136.973v22.124h-5.39v-30.248h5.781l16.65 21.995v-21.995h5.391v30.248h-5.695z" style="font-weight:500;font-size:73.615px;font-family:&quot;IntelOne Display&quot;;-inkscape-font-specification:&quot;IntelOne Display Medium&quot;;fill:url(#linearGradient3016);fill-opacity:1;fill-rule:evenodd;stroke-width:3.61182"/></g><style id="style2" type="text/css"/></svg>