<svg xmlns="http://www.w3.org/2000/svg" xmlns:xlink="http://www.w3.org/1999/xlink" id="svg8" version="1.1" viewBox="0 0 280.07 280.07"><defs id="defs2"><linearGradient id="linearGradient8279"><stop id="stop8275" offset="0" style="stop-color:#06113d;stop-opacity:1"/><stop id="stop8314" offset=".506" style="stop-color:#1b4786;stop-opacity:1"/><stop id="stop8277" offset="1" style="stop-color:#06113e;stop-opacity:1"/></linearGradient><linearGradient id="linearGradient1280"><stop id="stop1276" offset="0" style="stop-color:#ff5700;stop-opacity:1"/><stop id="stop1293" offset=".5" style="stop-color:#9500d4;stop-opacity:.98431373"/><stop id="stop1278" offset="1" style="stop-color:#1500e8;stop-opacity:.969697"/></linearGradient><linearGradient xlink:href="#linearGradient1280" id="linearGradient1290" x1="87.855" x2="87.855" y1="569.662" y2="405.377" gradientTransform="translate(-62.34 -55.917) scale(.26458)" gradientUnits="userSpaceOnUse"/><linearGradient xlink:href="#linearGradient8279" id="linearGradient994" x1="-407.572" x2="406.988" y1="-112.955" y2="701.605" gradientTransform="translate(73.974 33.76) scale(.26457)" gradientUnits="userSpaceOnUse"/><filter id="filter5169" style="color-interpolation-filters:sRGB"><feFlood id="feFlood5159" flood-color="#000" flood-opacity=".498" result="flood"/><feComposite id="feComposite5161" in="flood" in2="SourceGraphic" operator="in" result="composite1"/><feGaussianBlur id="feGaussianBlur5163" in="composite1" result="blur" stdDeviation=".5"/><feOffset id="feOffset5165" dx="0" dy="1.6" result="offset"/><feComposite id="feComposite5167" in="SourceGraphic" in2="offset" operator="over" result="composite2"/></filter><filter id="filter5291" style="color-interpolation-filters:sRGB"><feGaussianBlur id="feGaussianBlur5289" result="blur" stdDeviation="2 2"/></filter><filter id="filter5169-6" style="color-interpolation-filters:sRGB"><feFlood id="feFlood5159-2" flood-color="#000" flood-opacity=".498" result="flood"/><feComposite id="feComposite5161-9" in="flood" in2="SourceGraphic" operator="in" result="composite1"/><feGaussianBlur id="feGaussianBlur5163-4" in="composite1" result="blur" stdDeviation=".5"/><feOffset id="feOffset5165-3" dx="0" dy="1.6" result="offset"/><feComposite id="feComposite5167-7" in="SourceGraphic" in2="offset" operator="over" result="composite2"/></filter><filter id="filter5291-4" style="color-interpolation-filters:sRGB"><feGaussianBlur id="feGaussianBlur5289-3" result="blur" stdDeviation="2 2"/></filter></defs><g id="layer1" transform="translate(33.86 -3.876)"><g id="g1040"><path id="rect1140" d="M-33.86 3.876h280.07v280.07H-33.86Z" style="opacity:1;fill:#1b4786;fill-opacity:1;stroke:none;stroke-width:6.60000038;stroke-linecap:round;stroke-linejoin:round;stroke-miterlimit:4;stroke-dasharray:none;stroke-opacity:1;paint-order:normal"/><path id="path1149" d="M-33.86 3.876v215.51h215.511V3.877Z" style="opacity:1;fill:url(#linearGradient994);fill-opacity:1;stroke:none;stroke-width:11.9286747;stroke-linecap:round;stroke-linejoin:round;stroke-miterlimit:4;stroke-dasharray:none;stroke-opacity:1;paint-order:normal"/><path id="rect1134" d="M181.653 219.388v64.558h64.557v-64.558z" style="opacity:1;fill:#051947;fill-opacity:1;stroke:none;stroke-width:11.9286747;stroke-linecap:round;stroke-linejoin:round;stroke-miterlimit:4;stroke-dasharray:none;stroke-opacity:1;paint-order:normal"/><path id="rect4" d="M-2.579 28.915h6.873v6.873H-2.58z" style="fill:#fff;fill-opacity:1;stroke-width:.24458669"/><path id="path1090" d="M4.123 64.723V39.946h-6.53v24.752h6.53z" style="fill:#fff;stroke-width:.24458669"/><path id="path1088" d="M47.366 64.967v-6.065c-.954 0-1.761-.05-2.348-.147-.685-.098-1.199-.342-1.541-.685-.343-.342-.563-.831-.685-1.492-.098-.611-.147-1.418-.147-2.397v-8.634h4.72v-5.6h-4.72V30.31h-6.53v23.945c0 2.03.17 3.742.513 5.111.343 1.346.93 2.446 1.737 3.278.807.831 1.883 1.418 3.18 1.785 1.32.367 2.983.538 4.965.538z" style="fill:#fff;stroke-width:.24458669"/><path id="path1086" d="M84.738 64.723V28.402h-6.53v36.32z" style="fill:#fff;stroke-width:.24458669"/><path id="path1084" d="M29.829 42.392c-1.81-1.957-4.354-2.935-7.582-2.935-1.566 0-3.009.318-4.28.954a9.24 9.24 0 0 0-3.254 2.642l-.342.464v-3.571H7.938v24.752h6.482V51.515v.905-.44c.073-2.324.636-4.036 1.712-5.136 1.15-1.174 2.544-1.761 4.133-1.761 1.884 0 3.327.587 4.28 1.712.93 1.125 1.42 2.715 1.42 4.745v13.158h6.579V50.66c.024-3.522-.905-6.31-2.715-8.267z" style="fill:#fff;stroke-width:.24458669"/><path id="path1080" d="M55.437 50.023c0-1.81 2.079-4.965 6.555-4.99 4.476 0 6.58 3.156 6.58 4.966zm19.396 2.275c0-1.786-.318-3.449-.93-5.014a13.423 13.423 0 0 0-2.617-4.085c-1.125-1.174-2.47-2.079-4.035-2.74-1.566-.66-3.302-.977-5.186-.977a12.87 12.87 0 0 0-5.038 1.002c-1.566.685-2.935 1.59-4.085 2.74a12.758 12.758 0 0 0-2.74 4.084c-.684 1.566-1.002 3.253-1.002 5.039 0 1.785.318 3.473.954 5.038a12.57 12.57 0 0 0 2.666 4.085c1.125 1.15 2.52 2.079 4.133 2.74 1.615.684 3.4 1.027 5.308 1.027 5.528 0 8.952-2.52 11.006-4.868l-4.696-3.57c-.978 1.173-3.326 2.763-6.261 2.763-1.835 0-3.351-.416-4.5-1.272-1.15-.831-1.933-2.005-2.349-3.448l-.073-.22h19.445z" style="fill:#fff;stroke-width:.24458669"/><path id="path1076" d="M95.11 62.488a2.88 2.88 0 0 1-.626.957 2.88 2.88 0 0 1-.958.626 3.054 3.054 0 0 1-1.179.221 3.19 3.19 0 0 1-1.178-.22 2.88 2.88 0 0 1-.958-.627 2.88 2.88 0 0 1-.626-.957 3.055 3.055 0 0 1-.221-1.179c0-.405.074-.81.22-1.179.148-.368.37-.7.627-.957a2.88 2.88 0 0 1 .958-.626 3.054 3.054 0 0 1 1.178-.221c.406 0 .81.073 1.179.22.368.148.7.369.958.627.257.258.478.59.626.957.147.369.22.737.22 1.179 0 .442-.073.81-.22 1.179zm.59-2.579a3.48 3.48 0 0 0-.774-1.141c-.332-.332-.7-.59-1.142-.774a3.666 3.666 0 0 0-1.4-.295c-.515 0-.957.111-1.4.295-.441.184-.81.442-1.141.774-.332.331-.59.7-.774 1.141a3.67 3.67 0 0 0-.294 1.4c0 .516.11.958.294 1.4.184.442.442.81.774 1.141.331.332.7.59 1.142.774.442.184.92.295 1.4.295.515 0 .957-.11 1.399-.295.442-.184.81-.442 1.142-.774.331-.331.589-.7.773-1.141a3.67 3.67 0 0 0 .295-1.4c0-.479-.11-.958-.295-1.4z" style="fill:#fff;stroke-width:.36832049"/><path id="path6" d="M92.642 61.014h-.921v-1.178h.921c.11 0 .221.037.331.073a.37.37 0 0 1 .221.185c.074.073.074.184.074.331a.737.737 0 0 1-.074.332.974.974 0 0 1-.22.184 1.072 1.072 0 0 1-.332.073zm.405.626a1.14 1.14 0 0 0 .7-.331c.184-.184.295-.442.295-.81 0-.405-.11-.7-.369-.921-.22-.221-.626-.332-1.105-.332h-1.62v4.162h.773v-1.694h.553l1.031 1.694h.81z" style="fill:#fff;stroke-width:.36832049"/><path id="path6099" d="M100.854 144.424q0-11.303 7.801-18.91 7.802-7.68 19.505-7.68t19.43 7.607q7.726 7.535 7.726 18.838t-7.801 18.983q-7.802 7.608-19.43 7.608-11.703 0-19.505-7.536-7.726-7.607-7.726-18.91zm9.677-.145q0 7.898 5.026 13.187t12.603 5.289q7.502 0 12.453-5.217t4.951-13.114q0-7.825-5.026-13.114-5.026-5.361-12.453-5.361-7.577 0-12.603 5.216-4.951 5.217-4.951 13.114z" style="font-style:normal;font-variant:normal;font-weight:500;font-stretch:normal;font-size:73.724px;line-height:1.25;font-family:&quot;IntelOneALT Display&quot;;-inkscape-font-specification:&quot;IntelOneALT Display Medium&quot;;letter-spacing:0;word-spacing:0;fill:#fff;fill-opacity:1;stroke:none;stroke-width:1.8431"/><path id="path6103" d="M70.536 162.61q5.017 0 9.108-1.812 4.168-1.883 8.258-5.94l5.712 5.94q-4.785 5-10.806 7.536-5.943 2.536-12.967 2.536-12.272 0-20.145-7.39-7.796-7.463-7.796-19.056 0-11.23 7.796-18.91 7.795-7.68 19.528-7.68 11.963 0 19.373 7.318 7.41 7.245 7.41 18.837 0 1.015-.154 2.029-.078.942-.31 2.101H52.167q1.157 6.593 6.174 10.578 5.095 3.913 12.196 3.913zM69.3 125.876q-6.561 0-11.27 3.985-4.708 3.912-5.865 10.506h33.73q-.927-6.811-5.326-10.651-4.4-3.84-11.27-3.84z" style="font-style:normal;font-variant:normal;font-weight:500;font-stretch:normal;font-size:73.724px;line-height:1.25;font-family:&quot;IntelOneALT Display&quot;;-inkscape-font-specification:&quot;IntelOneALT Display Medium&quot;;letter-spacing:0;word-spacing:0;fill:#fff;fill-opacity:1;stroke:none;stroke-width:1.86955"/><path id="rect88" d="M739.56 433.898v196h35.81V501.324l106.189 128.574h35.808v-196H881.56v128.575L775.37 433.898Z" style="fill:#fff;fill-rule:evenodd;stroke-width:0" transform="translate(-33.86 3.876) scale(.26458)"/><path id="path1015" d="m99.725 435.67 3.474 4.307 73.66 91.34-77.134 95.646h42.605l55.83-69.234 55.832 69.234h42.606l-77.135-95.647 77.135-95.646h-42.606l-55.832 69.234-55.83-69.234H99.725z" style="color:#000;font-style:normal;font-variant:normal;font-weight:400;font-stretch:normal;font-size:medium;line-height:normal;font-family:sans-serif;font-variant-ligatures:normal;font-variant-position:normal;font-variant-caps:normal;font-variant-numeric:normal;font-variant-alternates:normal;font-variant-east-asian:normal;font-feature-settings:normal;font-variation-settings:normal;text-indent:0;text-align:start;text-decoration:none;text-decoration-line:none;text-decoration-style:solid;text-decoration-color:#000;letter-spacing:normal;word-spacing:normal;text-transform:none;writing-mode:lr-tb;direction:ltr;text-orientation:mixed;dominant-baseline:auto;baseline-shift:baseline;text-anchor:start;white-space:normal;shape-padding:0;shape-margin:0;inline-size:0;clip-rule:nonzero;display:inline;overflow:visible;visibility:visible;isolation:auto;mix-blend-mode:normal;color-interpolation:sRGB;color-interpolation-filters:linearRGB;solid-color:#000;solid-opacity:1;vector-effect:none;fill:#fff;fill-opacity:1;fill-rule:evenodd;stroke:none;stroke-width:0;stroke-linecap:butt;stroke-linejoin:miter;stroke-miterlimit:4;stroke-dasharray:none;stroke-dashoffset:0;stroke-opacity:1;color-rendering:auto;image-rendering:auto;shape-rendering:auto;text-rendering:auto;enable-background:accumulate;stop-color:#000" transform="translate(-33.86 3.876) scale(.26458)"/><path id="path1076-6" d="M218.713 124.113a2.88 2.88 0 0 1-.626.958 2.88 2.88 0 0 1-.957.626 3.054 3.054 0 0 1-1.18.221 3.19 3.19 0 0 1-1.178-.221 2.88 2.88 0 0 1-.957-.626 2.88 2.88 0 0 1-.626-.958 3.055 3.055 0 0 1-.221-1.178c0-.406.073-.81.22-1.179.148-.368.369-.7.627-.958a2.88 2.88 0 0 1 .957-.626 3.054 3.054 0 0 1 1.179-.22c.405 0 .81.073 1.179.22.368.148.7.369.957.626.258.258.479.59.626.958.148.368.221.737.221 1.179 0 .442-.073.81-.22 1.178zm.59-2.578a3.481 3.481 0 0 0-.774-1.142c-.331-.331-.7-.59-1.142-.773a3.666 3.666 0 0 0-1.4-.295c-.515 0-.957.11-1.399.295a3.49 3.49 0 0 0-1.142.773 3.49 3.49 0 0 0-.773 1.142c-.184.442-.295.92-.295 1.4 0 .515.11.957.295 1.4.184.441.442.81.773 1.141.332.331.7.59 1.142.773.442.185.92.295 1.4.295.515 0 .957-.11 1.4-.295.441-.184.81-.442 1.141-.773.332-.331.59-.7.774-1.142.184-.442.294-.92.294-1.4 0-.478-.11-.957-.294-1.399z" style="fill:#fff;stroke-width:.368321"/><path id="path6-2" d="M216.246 122.64h-.921v-1.179h.921c.11 0 .22.037.331.074.11.037.184.11.221.184.074.074.074.184.074.332a.737.737 0 0 1-.074.331.973.973 0 0 1-.22.184c-.111.037-.222.074-.332.074zm.405.626a1.14 1.14 0 0 0 .7-.331c.184-.185.294-.442.294-.81 0-.406-.11-.7-.368-.922-.221-.22-.626-.331-1.105-.331h-1.62v4.162h.773v-1.694h.552l1.032 1.694h.81z" style="fill:#fff;stroke-width:.368321"/></g></g><style id="style2" type="text/css">.st0{fill:#00c7fd}.st1{fill:#fff}</style></svg>