<svg xmlns="http://www.w3.org/2000/svg" xml:space="preserve" style="shape-rendering:geometricPrecision;text-rendering:geometricPrecision;image-rendering:optimizeQuality;fill-rule:evenodd;clip-rule:evenodd" viewBox="0 0 13000 13000"><defs><style>.fil1{fill:#fefefe;fill-rule:nonzero}</style></defs><g id="__x0023_Layer_x0020_1"><path d="M13000 13000H0V0h13000z" style="fill:#252323;fill-rule:nonzero"/><path d="M7743 9284v715h204v-715zm-3632 611h-465v-201h521v-105h-521v-201h465l101-104h-770v715h770zm6293-507h341l101-104h-770v715h204v-357h435l101-105h-536v-149zm-502-107h-734v473l175 176 71 71 1 1h535v-588h-1c0-2 1-5 1-7v-77c0-27-22-49-49-49zm-155 617h-196l-180-179v-322h376v500zm-1345-510h341l101-104h-781v715h680l101-104h-578v-507zm-4079-104v714h204v-233h548v-430c0-27-22-49-49-49h-499v-1h-204zm204 105h331c7 0 13 6 13 13v258h-344v-272zm1433 610v-715h-204v611h-377v-611h-204v715h772zm1259-101h-80v-614h-204v715h47v3h578l101-104zm-454-342v-223c0-27-22-49-49-49h-653v714h755v-426h-53v-17zm-151 339h-346v-218h346v218zm8-451v128h-355v-184h342c7 0 13 6 13 13v42zm-3366-160h-813v532l125 128 79 80v-636h441c7 0 13 6 13 13v270h-372l121 123 455 465v-249l-13-12-183-188-16-16h211v-381c0-2 1-3 1-4v-77c0-27-22-49-49-49zm3136 1210-161 112-52 36-51-36-161-112-115-80-89-62v714h204v-415l212 147 213-147v415h204v-714l-89 62zm648-38h341l101-104h-770v714h770l-101-104h-465v-201h522v-104h-522v-201zm-1450-104h-724v714h204v-305h366v305h204v-665c0-27-22-49-49-49zm-155 305h-366v-201h353c7 0 13 6 13 13v188zm3412-201h341l101-104h-577v-1h-204v410h568v201h-578l101 104h681v-409h-568v-201zm-4568 0h341l101-104h-801v714h801v-395h-204v290h-393v-505zm3910 292h188v-347c0-23-16-42-38-47v-2h-759v714h204v-610h378c7 0 13 6 13 13v156h-333l-12 11 102 113 287 318h257l-130-145-156-173z" class="fil1"/><path d="M12109 2641s-1444 478-4509 2214C5783 5885 4216 7067 4216 7067s240 146 445 225c1270 491 2996 777 3827 776 192 0 336-16 416-48 1151-460 2317-3106 2662-4315 0 0-1203 577-2419 1255-1490 830-3049 1791-3049 1791h1l3772-1611c-2 4-661 1906-1663 2175-188 50-406 69-636 66-921-13-2036-373-2203-429-14-5-21-7-21-7s1915-1439 6444-3661c143-70 322-440 317-643z" style="fill:#d7262c;fill-rule:nonzero"/><path d="M2512 5608c246 486 647 1239 993 1723 538 754 1505 1190 1505 1190s-26-28-69-77c-29-32-66-74-108-122-21-24-44-50-67-77-235-273-575-689-714-963-116-229 28-531 974-1256 857-655 3938-3334 6887-4054 0 0-273-46-754-46-663 0-1721 88-3001 504-788 256-1948 1875-4069 3635-254 211-1072-541-1773-689 0 0 126 96 196 233zM879 4430c-11-14-16-21-16-21s200 974 474 1474c275 500 1672 1049 1672 1049-678-656-1971-2299-2130-2502z" class="fil1"/></g></svg>