<svg xmlns="http://www.w3.org/2000/svg" xmlns:xlink="http://www.w3.org/1999/xlink" xml:space="preserve" width="134.963" height="114.075"><defs><linearGradient id="a" x1="0" x2="1" y1="0" y2="0" gradientTransform="matrix(101.039 0 0 -101.039 3.407 45.441)" gradientUnits="userSpaceOnUse" spreadMethod="pad"><stop offset="0" stop-color="#4b0607"/><stop offset=".361" stop-color="#e51b23"/><stop offset=".361" stop-color="#e51b23"/><stop offset=".996" stop-color="#4b0607"/><stop offset="1" stop-color="#4b0607"/></linearGradient><linearGradient id="c" x1="0" x2="1" y1="0" y2="0" gradientTransform="matrix(0 -11.5408 -11.5408 0 53.926 28.552)" gradientUnits="userSpaceOnUse" spreadMethod="pad"><stop offset="0" stop-color="#3d3a3b"/><stop offset="1" stop-color="#231f20"/></linearGradient><linearGradient id="b" x1="0" x2="1" y1="0" y2="0" gradientTransform="scale(-132.41 132.41) rotate(-35 .593 1.612)" gradientUnits="userSpaceOnUse" spreadMethod="pad"><stop offset="0" stop-color="#393536"/><stop offset=".188" stop-color="#9e9c9c"/><stop offset=".406" stop-color="#5a5758"/><stop offset=".542" stop-color="#787677"/><stop offset=".718" stop-color="#ededed"/><stop offset=".899" stop-color="#5e5b5c"/><stop offset=".899" stop-color="#5e5b5c"/><stop offset="1" stop-color="#abaaaa"/></linearGradient><linearGradient xlink:href="#a" id="e" x1="0" x2="10.653" y1="0" y2="0" gradientTransform="matrix(101.039 0 0 -101.039 3.407 45.441)" gradientUnits="userSpaceOnUse" spreadMethod="pad"/><linearGradient xlink:href="#b" id="i" x1="-9.566" x2="1" y1=".866" y2="0" gradientTransform="scale(-132.41 132.41) rotate(-35 .593 1.612)" gradientUnits="userSpaceOnUse" spreadMethod="pad"/><linearGradient xlink:href="#c" id="g" x1="-15.85" x2="-11.253" y1="0" y2="0" gradientTransform="matrix(0 -11.5408 -11.5408 0 53.926 28.552)" gradientUnits="userSpaceOnUse" spreadMethod="pad"/><clipPath id="d" clipPathUnits="userSpaceOnUse"><path d="M1044.46 31.816H34.066v845.192H1044.46V31.816z"/></clipPath><clipPath id="f" clipPathUnits="userSpaceOnUse"><path d="M1044.46 31.816H34.066l-.003 140.625c60.765 30.137 478.675 218.907 1010.377.762l.02-141.387z"/></clipPath><clipPath id="h" clipPathUnits="userSpaceOnUse"><path d="M1041.16 106.562c0-37.578-30.45-68.027-68.051-68.027H106.523c-37.597 0-68.046 30.45-68.046 68.027v699.36c0 37.574 30.449 68.039 68.046 68.039h866.586c37.601 0 68.051-30.465 68.051-68.039v-699.36zm-68.168 806.043H106.699C47.754 912.605 0 864.844 0 805.926V106.719C0 47.773 47.754 0 106.699 0h866.293c58.928 0 106.698 47.773 106.698 106.719v699.207c0 58.918-47.77 106.679-106.698 106.679z"/></clipPath></defs><g clip-path="url(#d)" transform="matrix(.13 0 0 -.13 0 114.075)"><path fill="url(#e)" d="M34.066 31.816h1010.39v845.191H34.066V31.817z"/></g><g clip-path="url(#f)" transform="matrix(.13 0 0 -.13 0 114.075)"><path fill="url(#g)" d="M1044.46 31.816H34.066l-.003 140.625c60.765 30.137 478.675 218.907 1010.377.762l.02-141.387"/></g><g clip-path="url(#h)" transform="matrix(.13 0 0 -.13 0 114.075)"><path fill="url(#i)" d="M1041.16 106.562c0-37.578-30.45-68.027-68.051-68.027H106.523c-37.597 0-68.046 30.45-68.046 68.027v699.36c0 37.574 30.449 68.039 68.046 68.039h866.586c37.601 0 68.051-30.465 68.051-68.039v-699.36zm-68.168 806.043H106.699C47.754 912.605 0 864.844 0 805.926V106.719C0 47.773 47.754 0 106.699 0h866.293c58.928 0 106.698 47.773 106.698 106.719v699.207c0 58.918-47.77 106.679-106.698 106.679"/></g><path fill="#fff" d="M18.885 39.644h6.504c1.06 0 1.447-.428 1.447-1.338v-.34c0-1.125-.566-1.334-1.8-1.334h-6.151v3.013zm-3.904-6.175h11.835c3.009 0 3.818 1.485 3.818 3.777v.72c0 1.708-.384 2.715-2.179 3.13v.038c1.158.216 2.121.725 2.121 2.816v3.99h-3.898v-3.357c0-1.34-.397-1.775-1.607-1.775h-6.187v5.132H14.98V33.469m41.141 11.202h5.395c1.675 0 2.328-.475 2.328-2.287v-3.468c0-1.8-.653-2.283-2.328-2.283h-5.395v8.037zM52.22 33.47h10.246c3.902 0 5.284 1.28 5.284 4.426V43.5c0 3.159-1.383 4.441-5.284 4.441H52.22V33.47m17.81-.001h14.45v2.952H73.937v2.9h10.008v2.642H73.938v2.916h10.768v3.061H70.031V33.469m34.295 0h6.049l5.681 10.637.033.1V33.47h3.894v14.47h-6.046l-5.674-10.99-.032.481V47.94h-3.906V33.469M45.134 39.99h-8.108v-.756c0-1.573.384-2.535 2.42-2.535h5.688v3.291zm-6.52-6.521c-3.487 0-5.55.867-5.55 4.561v9.91h3.962v-5.086h8.108v5.086H49V33.469H38.614m59.528 8.762c0 1.81-.383 2.503-2.19 2.503h-3.1c-1.816 0-2.192-.693-2.192-2.503V36.68h5.085c2.014 0 2.397.939 2.397 2.495v3.056zm-1.577-8.762h-9.84v9.956c0 3.66 2.049 4.515 5.504 4.515h4.337c3.455 0 5.5-.855 5.5-4.515v-5.438c0-3.663-2.045-4.518-5.5-4.518M32.319 58.066h4.383l.03 1.749c0 1.275-.272 2.095-.813 2.461-.544.368-1.753.551-3.629.551-1.721 0-2.862-.243-3.42-.734-.56-.492-.837-1.492-.837-3 0-1.927.11-3.146.333-3.653.278-.617.699-1.035 1.263-1.25.562-.217 1.52-.325 2.874-.325 1.77 0 2.912.169 3.425.5.516.335.775 1.072.775 2.217h-1.91c-.035-.576-.178-.935-.428-1.075-.25-.137-.879-.21-1.885-.21-1.094 0-1.787.12-2.082.363-.295.241-.442.805-.442 1.696l-.007.884.015 1.13c0 .872.145 1.429.437 1.667.292.24.967.36 2.028.36 1.031 0 1.685-.103 1.965-.306.28-.2.42-.679.42-1.43l.007-.362H32.32v-1.233m9.121.31h2.713c.646 0 1.075-.102 1.287-.307.211-.203.318-.613.318-1.228 0-.627-.093-1.035-.273-1.216-.183-.182-.583-.275-1.201-.275h-2.844v3.025zm-1.887 4.375v-8.808h4.906c1.221 0 2.061.187 2.524.562.462.374.692 1.053.692 2.031 0 .892-.115 1.5-.347 1.825-.229.328-.703.555-1.418.68v.059c1.103.058 1.655.629 1.655 1.709v1.941H45.68v-1.609c0-.905-.505-1.36-1.519-1.36h-2.719v2.969h-1.887m16.705-2.922-1.721-4.588-1.691 4.588h3.412zm.438 1.232H52.4l-.62 1.691h-1.997l3.31-8.809h2.838l3.362 8.81h-1.96l-.635-1.692m6.837-2.56h2.151c.858 0 1.4-.089 1.631-.263.23-.173.347-.586.347-1.235 0-.745-.095-1.206-.288-1.385-.194-.177-.694-.268-1.5-.268h-2.341v3.15zm-1.889 4.251v-8.808h4.509c1.345 0 2.254.207 2.723.623.468.415.704 1.215.704 2.404 0 1.177-.226 1.961-.673 2.35-.447.385-1.35.578-2.713.578l-.437.007h-2.224v2.846h-1.889m19.078-8.807v8.806h-1.89v-3.809h-4.667v3.809H72.28v-8.809h1.888v3.597h4.667v-3.595h1.89m3.243 8.808h1.89v-8.807h-1.89v8.806zm11.294-3.141h1.897v.302c0 1.226-.254 2.02-.76 2.378-.505.359-1.623.537-3.354.537-1.965 0-3.175-.283-3.625-.85-.45-.568-.678-2.087-.678-4.554 0-1.456.307-2.41.92-2.87s1.893-.688 3.842-.688c1.421 0 2.368.188 2.845.566.475.375.715 1.124.715 2.242l.007.2h-1.897v-.227c0-.576-.123-.945-.367-1.106-.246-.161-.805-.241-1.682-.241-1.171 0-1.878.126-2.113.38-.233.253-.35 1.006-.35 2.258 0 1.688.103 2.686.315 2.993.213.31.895.466 2.053.466.937 0 1.549-.087 1.829-.258.278-.173.417-.552.417-1.135l-.015-.393m11.969-3.097h-1.846a1.667 1.667 0 0 1-.015-.182c-.044-.496-.169-.806-.374-.932-.203-.128-.683-.191-1.442-.191-.894 0-1.48.073-1.753.22-.275.146-.412.453-.412.922 0 .555.112.889.333 1 .225.111.965.2 2.22.258 1.479.073 2.438.262 2.875.562.435.3.653.928.653 1.876 0 1.17-.254 1.927-.766 2.269-.51.341-1.634.513-3.377.513-1.565 0-2.605-.167-3.118-.503-.513-.335-.77-1.016-.77-2.039l-.007-.322h1.839l.008.187c0 .617.12.992.362 1.129.245.136.909.208 1.994.208.844 0 1.384-.082 1.619-.24.233-.16.35-.528.35-1.104 0-.426-.09-.708-.268-.85-.179-.138-.559-.224-1.147-.253l-1.045-.058c-1.575-.082-2.58-.275-3.018-.582-.437-.305-.656-.96-.656-1.967 0-1.029.262-1.714.79-2.056.527-.342 1.582-.513 3.162-.513 1.499 0 2.508.159 3.028.471.52.315.781.928.781 1.842v.333M82.554 96.109v5.684h5.52l3.855-4.07h-5.303v-5.338l-4.072 3.724m-.149-8.284h14.526v14.346l-4.45-4.456v-5.769h-5.86l-4.216-4.121m-37.62 3.847-1.797 4.757h3.775l-1.978-4.757zm7.166 9.32h-3.287l-1.005-2.426H42.18l-.918 2.425H38.03l4.94-12.246h3.54l5.44 12.246m11.803-12.246h2.656v12.246h-3.052v-7.648l-3.307 3.844h-.466l-3.303-3.844v7.65h-3.056V88.745h2.659l3.936 4.544 3.932-4.544m7.649 10.003H73.4c3.069 0 3.987-2.083 3.987-3.88 0-2.1-1.133-3.88-4.025-3.88h-1.96v7.76zm2.354-10.003c4.475 0 6.773 2.784 6.773 6.14 0 3.519-2.23 6.106-7.114 6.106h-5.066V88.745h5.407"/></svg>