<svg xmlns="http://www.w3.org/2000/svg" xml:space="preserve" viewBox="0 0 962.178 1049"><defs><clipPath id="a" clipPathUnits="userSpaceOnUse"><path d="M0 60h56V0H0v60Z"/></clipPath></defs><g clip-path="url(#a)" transform="matrix(17.48333 0 0 -17.48333 -8.443 1049)"><path d="M0 0h-43.924a5.046 5.046 0 0 1-5.044-5.05v-13.88h17.918l14.865 8.579H5.046v5.301A5.05 5.05 0 0 1 0 0" style="fill:#0071c5;fill-opacity:1;fill-rule:nonzero;stroke:none" transform="translate(49.96 59.49)"/><path d="m0 0-14.865-8.579h-17.918v-35.004a5.045 5.045 0 0 1 5.044-5.046h43.924a5.047 5.047 0 0 1 5.045 5.046V0H0Z" style="fill:#fff;fill-opacity:1;fill-rule:nonzero;stroke:none" transform="translate(33.776 49.14)"/><path d="M0 0c-.971 4.734-10.165 5.038-16.093 1.425v-.394c5.92 3.041 14.32 3.022 15.084-1.34.255-1.444-.557-2.945-2.01-3.814v-1.129C-1.271-4.609.521-2.539 0 0m-10.774-8.291c-4.091-.377-8.353.214-8.952 3.414-.291 1.571.429 3.245 1.383 4.281v.557c-1.717-1.503-2.648-3.407-2.112-5.656.683-2.884 4.343-4.516 9.926-3.975 2.208.214 5.105.924 7.111 2.027v1.571c-1.822-1.086-4.841-1.985-7.356-2.219" style="fill:#fff;fill-opacity:1;fill-rule:nonzero;stroke:none" transform="translate(24.951 52.996)"/><path d="M0 0h-1.072v-4.777c0-.557.271-1.043 1.072-1.121V0Z" style="fill:#fff;fill-opacity:1;fill-rule:nonzero;stroke:none" transform="translate(21.204 53.683)"/><path d="M0 0h-1.073v-3.12c0-.561.271-1.048 1.073-1.123V0Z" style="fill:#fff;fill-opacity:1;fill-rule:nonzero;stroke:none" transform="translate(8.435 51.94)"/><path d="M7.361 52.52h1.071v1.02H7.361v-1.02z" style="fill:#fff;fill-opacity:1;fill-rule:nonzero;stroke:none"/><path d="M0 0c-.872 0-1.235.603-1.235 1.196v4.143h1.059V4.195h.797v-.856h-.797V1.262c0-.243.116-.378.369-.378h.428V0H0" style="fill:#fff;fill-opacity:1;fill-rule:nonzero;stroke:none" transform="translate(14.86 47.746)"/><path d="M0 0c-.365 0-.643-.186-.76-.437a1.13 1.13 0 0 1-.107-.458H.774C.752-.437.547 0 0 0m-.867-1.618c0-.547.345-.944.94-.944.478 0 .708.127.98.397l.659-.622C1.292-3.203.848-3.46.069-3.46c-1.016 0-1.989.558-1.989 2.176C-1.92.096-1.068.88.045.88c1.137 0 1.79-.914 1.79-2.117v-.381H-.867" style="fill:#fff;fill-opacity:1;fill-rule:nonzero;stroke:none" transform="translate(17.679 51.13)"/><path d="M0 0c.309 0 .437-.158.437-.406v-2.938h1.064v2.947C1.501.199 1.185.856.251.856h-2.197v-4.2h1.064V0H0Z" style="fill:#fff;fill-opacity:1;fill-rule:nonzero;stroke:none" transform="translate(11.326 51.084)"/><path d="M0 0c0 .068-.044.092-.136.092h-.093v-.199l.093-.003c.092 0 .136.035.136.1V0Zm.139-.491H.031c-.012 0-.019.003-.023.012l-.144.247a.052.052 0 0 1-.023.009h-.064v-.245c0-.011-.007-.023-.026-.023h-.096a.024.024 0 0 0-.023.023v.622c0 .039.01.052.044.056.034.004.125.009.175.009C.031.219.137.167.137 0v-.01c0-.102-.053-.162-.131-.185l.151-.26c.002-.001.002-.013.002-.013 0-.014-.002-.023-.02-.023M-.117.33a.478.478 0 1 1 .004-.956.478.478 0 0 1-.004.956m0-1.054a.57.57 0 0 0-.571.572c0 .321.254.578.571.578a.575.575 0 1 0 0-1.15" style="fill:#fff;fill-opacity:1;fill-rule:nonzero;stroke:none" transform="translate(22.534 53.257)"/><path d="m0 0-4.129-1.275-3.765-1.164c.166-.486.363-.959.588-1.415l3.486 1.839L0 0Zm6.291-.003 3.818-2.017 3.488-1.838c.222.453.422.926.587 1.413l-3.766 1.166L6.291-.003zm-8.875-3.859-3.033-2.517c.336-.383.7-.746 1.082-1.081l2.516 3.031L.738-1.105l-3.322-2.757zm7.03 2.018 1.277-4.129 1.162-3.764c.489.166.959.361 1.417.587L6.463-5.666 4.446-1.844zm1.105.739L8.312-4.43l2.514-3.03a11.5 11.5 0 0 1 1.082 1.081L8.877-3.863 5.551-1.105zm-2.405-.996-.402-4.3-.362-3.925c.249-.016.506-.026.764-.026.257 0 .514.01.765.026l-.364 3.925-.401 4.3zm3.145 4.704 4.127 1.275 3.768 1.165c-.164.484-.363.958-.585 1.414l-3.49-1.84-3.82-2.014zm-6.55-1.302-4.3.401-3.921.365a12.918 12.918 0 0 1-.026-.766c0-.256.011-.513.026-.765L-4.559.9l4.3.401zm9.134 5.165 3.033 2.516c-.336.384-.698.747-1.082 1.082L8.312 7.031 5.551 3.708l3.324 2.758ZM.738 3.708l-2.757 3.323-2.514 3.033a11.413 11.413 0 0 1-1.084-1.082l3.033-2.516L.738 3.708ZM.002 2.605l-3.82 2.017-3.486 1.841c-.225-.455-.422-.93-.588-1.416l3.765-1.165L.002 2.605Zm14.772-.538-3.926-.365-4.3-.401 4.3-.401 3.926-.364c.015.253.025.509.025.765 0 .26-.01.512-.025.766M-.594 12.341a12.105 12.105 0 0 1-1.415-.587L-.17 8.269l2.017-3.821L.571 8.575l-1.165 3.766ZM-2.015-9.147c.454-.226.93-.423 1.415-.587L.564-5.971l1.279 4.129-2.019-3.821-1.839-3.484zM8.31 11.75c-.458.228-.932.424-1.417.587L5.727 8.573 4.448 4.445l2.019 3.822L8.31 11.75Zm-5.928 1.178.362-3.924.402-4.299.401 4.299.364 3.924c-.251.016-.508.026-.765.026-.258 0-.515-.01-.764-.026" style="fill:#0071c5;fill-opacity:1;fill-rule:nonzero;stroke:none" transform="translate(36.21 33.716)"/><path d="M0 0c.036-.266.088-.529.151-.788L4.3.427 0 0Zm1.481 5.717a7.227 7.227 0 0 1-.45-.664l3.788-2.074-3.338 2.738Zm2.18-11.254 2.075 3.79-2.738-3.341c.213-.162.434-.31.663-.449M5.782 8.562l1.213-4.147-.427 4.299a7.96 7.96 0 0 1-.786-.152m8.02-12.132c.164.213.31.434.452.664L10.462-.832l3.34-2.738zM8.717-6.567c.264.037.529.089.786.152L8.29-2.269l.427-4.298Zm-3.004.172c.127-.032.255-.071.388-.1.133-.025.265-.039.394-.058l.466 4.294-1.248-4.136ZM8.786 8.7 8.32 4.408l1.248 4.133c-.129.035-.253.073-.385.1-.134.026-.265.04-.397.059m5.502-3.71a8.5 8.5 0 0 1-.442.669l-3.367-2.708 3.809 2.039ZM.993-2.844c.138-.229.285-.452.444-.667L4.801-.804.993-2.844zm10.566-2.73c.231.139.452.285.669.444L9.519-1.765l2.04-3.809zm3.709 5.503-4.292.465 4.131-1.25c.035.129.077.257.102.389.026.132.04.264.059.396m.015 2.218c-.04.267-.09.527-.155.787l-4.147-1.212 4.302.425ZM.171 3.002C.14 2.873.1 2.747.074 2.614c-.028-.133-.04-.264-.06-.397l4.29-.466L.171 3.002ZM11.62 7.683 9.545 3.894l2.738 3.342c-.213.16-.431.31-.663.447m-7.895.037a7.984 7.984 0 0 1-.669-.443l2.705-3.365L3.725 7.72Z" style="fill:#ffda00;fill-opacity:1;fill-rule:nonzero;stroke:none" transform="translate(31.716 33.944)"/><path d="M0 0a1.76 1.76 0 0 1-1.33-.566c-.357-.374-.538-1.013-.538-1.911v-1.12c0-.826.165-1.445.489-1.854.326-.409.785-.612 1.383-.612.307 0 .584.008.824.029.243.017.426.034.554.05v2.872c0 .115.051.172.154.172h.091c.101 0 .15-.057.15-.172v-3.045a.167.167 0 0 0-.043-.114.192.192 0 0 0-.107-.057c-.296-.036-.56-.065-.793-.084a9.365 9.365 0 0 0-.83-.032c-.44 0-.832.101-1.171.304-.339.201-.607.515-.805.943-.194.427-.292.961-.292 1.6v1.12c0 .706.11 1.273.327 1.696.218.423.498.721.837.892.343.173.709.26 1.1.26.331 0 .659-.043.988-.125.329-.081.567-.161.712-.238a.601.601 0 0 0 .131-.077c.027-.025.039-.059.039-.105v-.078c0-.061-.012-.101-.039-.114-.025-.016-.068-.014-.131.004a9.577 9.577 0 0 1-.817.256C.611-.036.318 0 0 0" style="fill:#0071c5;fill-opacity:1;fill-rule:nonzero;stroke:none" transform="translate(7.666 12.632)"/><path d="M0 0c-.178 0-.411-.018-.695-.053a6.012 6.012 0 0 1-.623-.101v-4.22a.166.166 0 0 0-.054-.121.173.173 0 0 0-.12-.051h-.051a.164.164 0 0 0-.12.053.168.168 0 0 0-.054.119v4.338c0 .098.056.158.163.181.232.059.496.108.796.148.301.041.552.06.758.06.119 0 .182-.045.182-.137V.145C.182.048.119 0 0 0" style="fill:#0071c5;fill-opacity:1;fill-rule:nonzero;stroke:none" transform="translate(12.344 10.787)"/><path d="M0 0v2.145h-.693c-.681 0-1.16-.075-1.426-.225-.267-.149-.401-.42-.401-.809V.992c0-.262.037-.47.114-.624.076-.154.218-.272.422-.354.205-.08.5-.119.884-.119A5.819 5.819 0 0 1 0 0m-1.261 4.149c-.198 0-.405-.024-.618-.072a3.857 3.857 0 0 1-.559-.163c-.125-.05-.187-.019-.187.089v.057c0 .091.055.158.166.199.154.056.336.11.551.159.215.051.436.074.661.074.404 0 .724-.057.963-.174a1.04 1.04 0 0 0 .518-.541c.109-.244.163-.56.163-.95V-.079c0-.057-.01-.1-.029-.129C.351-.237.312-.258.261-.269A5.104 5.104 0 0 0-1.102-.46c-.447 0-.804.052-1.077.155-.268.103-.463.259-.575.472-.115.211-.173.484-.173.822v.12c0 .485.171.837.511 1.058.339.221.914.331 1.723.331H0v.326c0 .356-.045.629-.134.822a.724.724 0 0 1-.401.396c-.178.071-.421.107-.726.107" style="fill:#0071c5;fill-opacity:1;fill-rule:nonzero;stroke:none" transform="translate(15.717 6.647)"/><path d="M0 0v.597c0 .614-.107 1.074-.319 1.382-.216.308-.565.462-1.054.462-.213 0-.42-.009-.625-.031-.203-.02-.417-.049-.633-.084v-4.017a6.322 6.322 0 0 1 1.258-.113c.331 0 .595.066.796.2.203.134.348.333.439.595C-.046-.745 0-.408 0 0m.396 0c0-.474-.066-.87-.198-1.192a1.446 1.446 0 0 0-.59-.722c-.262-.163-.59-.244-.981-.244-.436 0-.856.045-1.258.133v-1.669a.178.178 0 0 0-.043-.123.142.142 0 0 0-.111-.049h-.088a.137.137 0 0 0-.111.053.18.18 0 0 0-.044.119v6.145c0 .052.008.09.026.113.018.025.055.043.109.058.545.115 1.05.172 1.52.172.402 0 .736-.091.999-.272.263-.18.456-.436.583-.764.125-.327.187-.715.187-1.161V0Z" style="fill:#0071c5;fill-opacity:1;fill-rule:nonzero;stroke:none" transform="translate(20.227 8.346)"/><path d="M0 0c0-.114-.054-.172-.155-.172h-.094c-.042 0-.073.018-.102.051A.202.202 0 0 0-.391 0v2.991c0 .46-.105.805-.318 1.036-.211.231-.553.347-1.022.347-.444 0-.851-.055-1.218-.164V0a.174.174 0 0 0-.045-.123.14.14 0 0 0-.11-.049h-.09a.145.145 0 0 0-.11.053.187.187 0 0 0-.041.119v6.373c0 .045.013.084.041.118a.142.142 0 0 0 .11.053h.09a.14.14 0 0 0 .11-.048.177.177 0 0 0 .045-.123v-1.81c.177.05.375.091.595.12.217.03.424.044.623.044.405 0 .738-.072.994-.216a1.28 1.28 0 0 0 .557-.609c.12-.259.18-.564.18-.911V0Z" style="fill:#0071c5;fill-opacity:1;fill-rule:nonzero;stroke:none" transform="translate(24.92 6.413)"/><path d="M0 0a.166.166 0 0 0-.051-.121.168.168 0 0 0-.117-.051h-.059a.165.165 0 0 0-.119.053A.167.167 0 0 0-.399 0v4.511c0 .044.018.084.053.118a.163.163 0 0 0 .119.054h.059a.168.168 0 0 0 .117-.051A.165.165 0 0 0 0 4.511V0Zm0 5.746a.16.16 0 0 0-.051-.12.159.159 0 0 0-.117-.049h-.059a.174.174 0 0 0-.172.169v.672c0 .042.018.082.053.119a.165.165 0 0 0 .119.053h.059a.165.165 0 0 0 .117-.052.164.164 0 0 0 .051-.12v-.672Z" style="fill:#0071c5;fill-opacity:1;fill-rule:nonzero;stroke:none" transform="translate(26.442 6.413)"/><path d="M0 0c-.419 0-.761.092-1.025.276a1.564 1.564 0 0 0-.584.762c-.122.322-.184.706-.184 1.148v.609c0 .436.062.816.184 1.136.121.319.318.569.588.75.266.18.609.271 1.021.271.199 0 .398-.023.6-.071.197-.05.36-.104.491-.162a.395.395 0 0 0 .132-.08c.027-.03.04-.07.04-.119v-.057c0-.109-.065-.139-.19-.089C.685 4.524.327 4.6 0 4.6c-.498 0-.854-.154-1.071-.461-.216-.304-.324-.755-.324-1.344v-.609c0-.392.046-.723.137-.994.091-.27.238-.478.444-.623C-.609.424-.339.354 0 .354c.345 0 .703.074 1.073.223.125.05.19.021.19-.092V.432c0-.051-.013-.092-.042-.12a.409.409 0 0 0-.13-.078A2.808 2.808 0 0 0 .583.069 2.556 2.556 0 0 0 0 0" style="fill:#0071c5;fill-opacity:1;fill-rule:nonzero;stroke:none" transform="translate(29.275 6.188)"/><path d="M0 0c0-.448-.141-.769-.424-.961-.286-.196-.664-.293-1.138-.293-.209 0-.442.026-.695.076-.255.05-.462.106-.615.168a.69.69 0 0 0-.169.092c-.022.022-.032.058-.032.114v.035c0 .065.016.105.05.122.032.016.085.013.157-.013.227-.077.448-.138.663-.182.215-.045.433-.066.659-.066.366 0 .647.066.848.196.199.133.299.369.299.712a.664.664 0 0 1-.194.479c-.131.133-.384.304-.764.51l-.578.313a5.717 5.717 0 0 0-.621.387 1.306 1.306 0 0 0-.347.384 1.01 1.01 0 0 0-.126.514c0 .267.061.483.189.648.127.164.297.284.512.355.215.073.453.108.721.108.248 0 .487-.022.719-.069.236-.048.433-.103.59-.164.058-.022.094-.041.108-.061.017-.018.025-.052.025-.102v-.054c0-.12-.064-.161-.189-.119-.161.05-.352.099-.577.146-.223.046-.45.071-.676.071-.333 0-.588-.053-.761-.158-.175-.104-.265-.306-.265-.601 0-.187.069-.347.207-.479.14-.135.362-.29.673-.462l.605-.335c.416-.229.712-.433.885-.614C-.087.518 0 .285 0 0" style="fill:#0071c5;fill-opacity:1;fill-rule:nonzero;stroke:none" transform="translate(34.28 7.441)"/><path d="M0 0a.28.28 0 0 0-.065-.178.21.21 0 0 0-.165-.077h-.702a.225.225 0 0 0-.157.071A.248.248 0 0 0-1.16 0v8.937c0 .06.021.117.067.166.048.049.1.073.161.073h.702a.217.217 0 0 0 .161-.068A.228.228 0 0 0 0 8.937V0Z" style="fill:#0071c5;fill-opacity:1;fill-rule:nonzero;stroke:none" transform="translate(6.88 15.813)"/><path d="M0 0c.335 0 .621-.02.86-.062.092-.015.151-.044.177-.084.028-.038.04-.099.04-.179v-.456c0-.088-.015-.146-.048-.175C.996-.987.93-1.001.836-.997.548-.981.27-.973 0-.973a5.79 5.79 0 0 1-1.512-.192v-5.663a.253.253 0 0 0-.077-.178.24.24 0 0 0-.178-.077h-.618a.228.228 0 0 0-.169.075.243.243 0 0 0-.076.18v6.141c0 .159.078.258.231.304.486.135.918.233 1.298.292C-.719-.03-.354 0 0 0" style="fill:#0071c5;fill-opacity:1;fill-rule:nonzero;stroke:none" transform="translate(11.106 22.642)"/><path d="M0 0a.247.247 0 0 0-.075-.184.256.256 0 0 0-.179-.071h-.608a.247.247 0 0 0-.173.075.23.23 0 0 0-.083.18v6.469c0 .07.025.13.077.179.048.05.109.076.179.076h.608a.252.252 0 0 0 .187-.07A.257.257 0 0 0 0 6.469V0Zm.023 8.1a.245.245 0 0 0-.253-.254h-.646a.237.237 0 0 0-.177.073.244.244 0 0 0-.077.181v1.008c0 .071.025.13.073.18a.242.242 0 0 0 .181.075h.646c.08 0 .14-.023.185-.069.047-.045.068-.107.068-.186V8.1z" style="fill:#0071c5;fill-opacity:1;fill-rule:nonzero;stroke:none" transform="translate(14.31 15.813)"/><path d="M0 0c.921 0 1.381.322 1.381.965a.72.72 0 0 1-.196.51c-.134.139-.382.305-.751.496l-1.282.655c-.423.224-.744.484-.964.782-.221.297-.333.655-.333 1.072 0 .439.114.785.341 1.04.227.251.521.43.88.534.362.103.76.154 1.202.154.343 0 .685-.036 1.028-.111.339-.076.59-.157.752-.246a.822.822 0 0 0 .136-.092c.025-.022.037-.067.037-.132v-.522c0-.074-.027-.128-.078-.164-.051-.035-.121-.036-.213-.004-.237.092-.51.167-.821.228-.312.06-.592.091-.841.091-.396 0-.714-.05-.95-.15-.239-.099-.355-.304-.355-.613 0-.215.066-.399.203-.55.137-.151.359-.305.667-.467l1.261-.644a3.86 3.86 0 0 0 .836-.553c.204-.185.347-.379.431-.582.084-.203.126-.429.126-.682 0-.433-.107-.797-.321-1.092a1.885 1.885 0 0 0-.886-.658A3.62 3.62 0 0 0 0-.948a4.59 4.59 0 0 0-1.08.126 3.885 3.885 0 0 0-.823.276c-.118.062-.18.139-.18.229v.521c0 .074.027.131.08.168.055.037.125.037.211 0C-1.159.123-.561 0 0 0" style="fill:#0071c5;fill-opacity:1;fill-rule:nonzero;stroke:none" transform="translate(17.786 16.42)"/><path d="M0 0v.952h-.009L-.382 0h-.119l-.374.952h-.006V0h-.192v1.149h.294l.342-.873.336.873H.19V0H0Zm-1.663.995V0h-.193v.995h-.359v.154h.912V.995h-.36z" style="fill:#0071c5;fill-opacity:1;fill-rule:nonzero;stroke:none" transform="translate(22.98 21.385)"/><path d="M0 0h-43.924a5.563 5.563 0 0 1-5.554-5.56v-48.883A5.562 5.562 0 0 1-43.924-60H0a5.563 5.563 0 0 1 5.556 5.557V-5.56A5.565 5.565 0 0 1 0 0m0-.51a5.05 5.05 0 0 0 5.046-5.05v-48.883A5.049 5.049 0 0 0 0-59.49h-43.924a5.046 5.046 0 0 0-5.044 5.047V-5.56c0 2.79 2.258 5.05 5.044 5.05H0" style="fill:#004280;fill-opacity:1;fill-rule:nonzero;stroke:none" transform="translate(49.96 60)"/></g></svg>
