<svg xmlns="http://www.w3.org/2000/svg" xmlns:xlink="http://www.w3.org/1999/xlink" xml:space="preserve" viewBox="0 0 54 54"><path fill="#FFF" d="M0 0h54v54H0z"/><defs><path id="a" d="M41.85 0H54v41.85H41.85z"/></defs><clipPath id="b"><use xlink:href="#a" overflow="visible"/></clipPath><linearGradient id="c" x1="-361.747" x2="-360.747" y1="335.322" y2="335.322" gradientTransform="rotate(90 -537.033 14837.396) scale(42.5037)" gradientUnits="userSpaceOnUse"><stop offset="0" style="stop-color:#6d67af"/><stop offset=".097" style="stop-color:#6d67af"/><stop offset=".385" style="stop-color:#0091d0"/><stop offset=".721" style="stop-color:#3bbb9c"/><stop offset="1" style="stop-color:#a3cf62"/></linearGradient><path fill="url(#c)" d="M41.85 0H54v41.85H41.85z" clip-path="url(#b)"/><defs><path id="d" d="M0 41.85h41.85V54H0z"/></defs><clipPath id="e"><use xlink:href="#d" overflow="visible"/></clipPath><linearGradient id="f" x1="-369.46" x2="-368.46" y1="339.261" y2="339.261" gradientTransform="translate(16988.19 -15552.827) scale(45.9845)" gradientUnits="userSpaceOnUse"><stop offset="0" style="stop-color:#bf1f74"/><stop offset=".112" style="stop-color:#c92863"/><stop offset=".333" style="stop-color:#e33e37"/><stop offset=".374" style="stop-color:#e8422e"/><stop offset=".497" style="stop-color:#e85331"/><stop offset=".737" style="stop-color:#e87e3a"/><stop offset=".774" style="stop-color:#e8853b"/><stop offset=".841" style="stop-color:#ee963c"/><stop offset=".975" style="stop-color:#fcc33f"/><stop offset="1" style="stop-color:#ffcc40"/></linearGradient><path fill="url(#f)" d="M0 41.85h41.85V54H0z" clip-path="url(#e)"/><path fill="#1D2252" d="M41.85 41.85H54V54H41.85z"/><defs><path id="g" d="M0 0h54v54H0z"/></defs><clipPath id="h"><use xlink:href="#g" overflow="visible"/></clipPath><path fill="#FFF" d="M8.076 47.914v1.42s-.573.739-1.666.739c-1.175 0-2.076-.901-2.076-1.995 0-1.092.901-1.993 2.076-1.993 1.065 0 1.584.765 1.584.765l-.519.517s-.355-.545-1.065-.545-1.256.545-1.256 1.256c0 .71.546 1.257 1.256 1.257.573 0 .847-.3.847-.3v-.52h-.683v-.6h1.502zM9.532 46.167h1.693c.766 0 1.312.557 1.312 1.257 0 .818-.683 1.119-.683 1.119l.819 1.447h-.874l-.737-1.338h-.71v1.338h-.82v-3.823zm1.666.737h-.846v1.01h.846c.3 0 .519-.218.519-.49a.503.503 0 0 0-.52-.52M14.746 49.09l-.327.9h-.874l1.502-3.823h.873l1.503 3.823h-.874l-.327-.9h-1.476zm.738-1.968-.464 1.257h.928l-.464-1.257zM20.186 46.167c.79 0 1.366.562 1.366 1.283 0 .726-.575 1.284-1.366 1.284h-.792v1.256h-.82v-3.823h1.612zm-.792.737v1.093h.765a.555.555 0 0 0 .573-.547c0-.3-.246-.546-.573-.546h-.765zM26.053 49.99h-.819v-1.557h-1.639v1.557h-.82v-3.823h.82v1.529h1.64v-1.53h.818zM27.873 46.166h.819v3.823h-.819zM33.729 46.849l-.519.519s-.355-.547-1.065-.547-1.257.547-1.257 1.257c0 .71.547 1.256 1.257 1.256.737 0 1.12-.546 1.12-.546l.491.519s-.546.766-1.611.766c-1.175 0-2.076-.903-2.076-1.995s.901-1.994 2.076-1.994c1.065 0 1.584.765 1.584.765M34.966 47.204c0-.602.518-1.12 1.34-1.12.845 0 1.255.518 1.255.518l-.492.52s-.273-.328-.71-.328c-.328 0-.519.191-.519.41 0 .71 1.885.301 1.885 1.666 0 .684-.52 1.203-1.448 1.203-.956 0-1.448-.63-1.448-.63l.492-.49s.33.409.901.409c.41 0 .63-.22.63-.492 0-.71-1.886-.3-1.886-1.666" clip-path="url(#h)"/><path fill="#0091D0" d="M29.075 31.511h1.307l1.396-1.732 1.397 1.732h1.306l-2.05-2.543 2.05-2.543h-1.306l-1.397 1.732-1.396-1.732h-1.307l2.05 2.543z" clip-path="url(#h)"/><path fill="#0091D0" d="M37.697 28.377c.019-.103.028-.205.028-.306 0-.942-.75-1.68-1.704-1.68s-1.704.738-1.704 1.68c0 .94.749 1.68 1.704 1.68.646 0 1.146-.194 1.497-.73l-.553-.384c-.353.608-1.53.59-1.823-.26h2.555zm-2.54-.637c.134-.372.48-.626.864-.626s.73.254.864.626h-1.728z" clip-path="url(#h)"/><path fill="#1D2252" d="M28.759 28.835c0 .52-.143 1.002-.427 1.432-.284.431-.718.775-1.292 1.024-.571.248-1.281.374-2.109.374a6.776 6.776 0 0 1-2.139-.343c-.686-.229-1.233-.531-1.627-.897l-.037-.033.574-1.21.068.062c.361.325.832.593 1.4.797a5.17 5.17 0 0 0 1.761.309c.787 0 1.381-.134 1.765-.397.382-.262.568-.601.568-1.035 0-.311-.103-.568-.306-.762a2.113 2.113 0 0 0-.78-.464c-.315-.11-.769-.235-1.346-.373-.732-.176-1.33-.354-1.779-.53a3.006 3.006 0 0 1-1.178-.831c-.329-.376-.496-.888-.496-1.522 0-.53.141-1.014.42-1.44.279-.425.707-.769 1.272-1.023.561-.253 1.266-.381 2.095-.381.577 0 1.152.075 1.711.224a4.6 4.6 0 0 1 1.451.649l.045.031-.51 1.235-.069-.043a5.003 5.003 0 0 0-2.628-.781c-.768 0-1.349.141-1.729.418-.378.275-.562.621-.562 1.055 0 .317.102.566.312.763.214.201.484.359.801.471.324.114.773.237 1.332.366.732.176 1.327.354 1.773.53a3.06 3.06 0 0 1 1.171.823c.328.372.495.877.495 1.502M8.041 31.511h1.534v-3.766h3.102l2.092 3.766h1.674l-2.232-3.906s1.953-.697 1.953-2.859c0-1.674-1.325-3-3.139-3H8.041v9.765zm6.588-6.765c0 .907-.697 1.604-1.604 1.604h-3.45v-3.208h3.45c.907 0 1.604.697 1.604 1.604m3.36 6.765h1.534v-9.765h-1.534v9.765zm-13.521 0h1.534v-6.766H4.468v6.766zm1.576-8.071H4.425v-1.693h1.619v1.693z" clip-path="url(#h)"/><path fill="#0091D0" d="M4.425 4.822h1.326v1.327H4.425z" clip-path="url(#h)"/><path fill="#1D2252" d="M5.717 6.952H4.46v4.772h1.257V6.952zm8.332 4.82v-1.17a3.215 3.215 0 0 1-.455-.029.526.526 0 0 1-.295-.131.52.52 0 0 1-.13-.285 3.014 3.014 0 0 1-.03-.461V8.027h.91V6.952h-.91V5.093h-1.257v4.612c0 .39.034.721.1.984.066.261.18.474.335.633.157.16.363.276.614.344.253.07.576.106.96.106h.158zm7.204-7.047h-1.257v6.999h1.257V4.725zM10.67 7.422c-.348-.376-.84-.567-1.463-.567-.299 0-.577.062-.824.183a1.801 1.801 0 0 0-.625.51l-.068.088V6.952H6.45v4.772H7.7V9.182v.176l.002-.086c.012-.446.124-.779.331-.99.221-.225.49-.339.798-.339.362 0 .64.111.823.33.18.215.271.523.273.915v2.536h1.27V9.015c0-.681-.178-1.216-.527-1.593m8.671 1.906a2.488 2.488 0 0 0-.687-1.753 2.314 2.314 0 0 0-.778-.529 2.551 2.551 0 0 0-.998-.191c-.342 0-.668.066-.969.196-.3.13-.566.308-.788.529-.222.223-.4.488-.53.789-.13.3-.196.626-.196.969 0 .342.063.668.187.969.123.301.296.566.515.788.218.221.486.4.797.529.311.13.655.196 1.023.196 1.063 0 1.726-.484 2.122-.936l-.904-.689a1.662 1.662 0 0 1-1.209.533c-.354 0-.646-.082-.867-.244a1.213 1.213 0 0 1-.454-.662l-.012-.045h3.748v-.449zm-3.738-.438c0-.349.401-.959 1.266-.96.864 0 1.266.609 1.266.959l-2.532.001zM29.689 21.735a.668.668 0 0 1 0 1.333.667.667 0 0 1 0-1.333m0-.143a.81.81 0 1 0 .001 1.621.81.81 0 0 0-.001-1.62" clip-path="url(#h)"/><path fill="#1D2252" d="M29.749 21.997c.05 0 .097.011.138.034a.247.247 0 0 1 .129.22c0 .06-.016.108-.046.147s-.067.068-.11.085l.184.324h-.145l-.168-.3h-.19v.3h-.127v-.81h.335zm0 .393a.143.143 0 0 0 .072-.018.128.128 0 0 0 .049-.049c.012-.02.018-.045.018-.072s-.006-.05-.018-.072a.128.128 0 0 0-.05-.049.142.142 0 0 0-.071-.017h-.208v.277h.208zM22.697 10.513a.572.572 0 1 1-.003 1.145.572.572 0 0 1 .003-1.145m0-.095a.668.668 0 1 0 0 1.335.668.668 0 0 0 0-1.335" clip-path="url(#h)"/><path fill="#1D2252" d="M22.746 10.752c.042 0 .08.01.113.028a.208.208 0 0 1 .078.075.206.206 0 0 1 .028.107c0 .048-.012.089-.037.12s-.055.056-.091.07l.152.267h-.12l-.137-.248h-.157v.248h-.105v-.667h.276zm0 .324a.112.112 0 0 0 .1-.055.125.125 0 0 0 .014-.06.125.125 0 0 0-.014-.058.113.113 0 0 0-.1-.056h-.171v.229h.17z" clip-path="url(#h)"/></svg>