<svg xmlns="http://www.w3.org/2000/svg" version="1.1" viewBox="0 0 500 500" xml:space="preserve"><style>.st0{fill:#1a1a1a}.st1{fill:#76b900}.st2{fill:#fff}</style><g id="XMLID_1_"><path id="XMLID_5_" d="M432.5 67.8h-365v300.6l41.3 41.4h323.6l.1-342m0 0"/><path id="XMLID_6_" d="M205.4 67.8h-5L67.6 200.6v5z" class="st0"/><path id="XMLID_7_" d="M218.1 67.8h-5L67.5 213.3v5z" class="st0"/><path id="XMLID_8_" d="M230.8 67.8h-5L67.5 226v5z" class="st0"/><path id="XMLID_9_" d="M243.5 67.8h-5l-171 171v5z" class="st0"/><path id="XMLID_10_" d="M256.3 67.8h-5L67.5 251.5v5z" class="st0"/><path id="XMLID_11_" d="M269 67.8h-5L67.5 264.2v5z" class="st0"/><path id="XMLID_12_" d="M281.7 67.8h-5l-209.1 209v5z" class="st0"/><path id="XMLID_13_" d="M294.4 67.8h-5L67.5 289.5v5z" class="st0"/><path id="XMLID_14_" d="M307.1 67.8h-5L67.5 302.2v5z" class="st0"/><path id="XMLID_15_" d="M319.9 67.8h-5.1l-247.2 247v5z" class="st0"/><path id="XMLID_16_" d="M332.6 67.8h-5l-260 259.7v5z" class="st0"/><path id="XMLID_17_" d="M345.3 67.8h-5L67.6 340.2v5z" class="st0"/><path id="XMLID_18_" d="M358 67.8h-5L67.6 352.9v5.1z" class="st0"/><path id="XMLID_19_" d="m68.7 369.5 302-301.7h-5L67.5 365.7v2.7z" class="st0"/><path id="XMLID_20_" d="M383.5 67.8h-5l-306 305.6 2.5 2.5z" class="st0"/><path id="XMLID_21_" d="M396.2 67.8h-5L78.9 379.7l2.5 2.6z" class="st0"/><path id="XMLID_22_" d="M408.9 67.8h-5L85.2 386.1l2.5 2.5z" class="st0"/><path id="XMLID_23_" d="M421.6 67.8h-5l-325 324.7 2.5 2.5z" class="st0"/><path id="XMLID_24_" d="m429.3 67.8-331.4 331 2.5 2.5L432.5 69.7v-1.9z" class="st0"/><path id="XMLID_25_" d="m104.3 405.2 2.5 2.5L432.5 82.4v-5z" class="st0"/><path id="XMLID_26_" d="M112.3 409.9h5L432.5 95.1v-5z" class="st0"/><path id="XMLID_27_" d="M125 409.9h5l302.5-302.1v-5z" class="st0"/><path id="XMLID_28_" d="M137.8 409.9h5l289.7-289.4v-5z" class="st0"/><path id="XMLID_29_" d="M150.4 409.9h5.1l277-276.7v-5z" class="st0"/><path id="XMLID_30_" d="M163.2 409.9h5l264.3-264v-5z" class="st0"/><path id="XMLID_31_" d="M175.9 409.9h5l251.6-251.3v-5z" class="st0"/><path id="XMLID_32_" d="M188.6 409.9h5l238.9-238.6v-5z" class="st0"/><path id="XMLID_33_" d="M201.3 409.9h5.1L432.5 184v-5z" class="st0"/><path id="XMLID_34_" d="M214.1 409.9h5l213.4-213.2v-5z" class="st0"/><path id="XMLID_35_" d="M226.8 409.9h5l200.7-200.5v-5z" class="st0"/><path id="XMLID_36_" d="M239.5 409.9h5l188-187.7v-5.1z" class="st0"/><path id="XMLID_37_" d="M252.2 409.9h5l175.3-175v-5z" class="st0"/><path id="XMLID_38_" d="M265 409.9h5l162.5-162.3v-5z" class="st0"/><path id="XMLID_39_" d="M277.7 409.9h5l149.8-149.6v-5z" class="st0"/><path id="XMLID_40_" d="M290.4 409.9h5L432.5 273v-5z" class="st0"/><path id="XMLID_41_" d="M303.1 409.9h5l124.4-124.2v-5z" class="st0"/><path id="XMLID_42_" d="M315.8 409.9h5l111.7-111.5v-5z" class="st0"/><path id="XMLID_43_" d="M328.6 409.9h5l98.9-98.8v-5z" class="st0"/><path id="XMLID_44_" d="M341.3 409.9h5l86.2-86.1v-5z" class="st0"/><path id="XMLID_45_" d="M354 409.9h5l73.5-73.4v-5z" class="st0"/><path id="XMLID_46_" d="M366.7 409.9h5l60.8-60.7v-5z" class="st0"/><path id="XMLID_47_" d="M379.4 409.9h5.1l48-48v-5z" class="st0"/><path id="XMLID_48_" d="M392.2 409.9h5l35.3-35.3v-5z" class="st0"/><path id="XMLID_49_" d="M404.9 409.9h5l22.6-22.6v-5z" class="st0"/><path id="XMLID_50_" d="M417.6 409.9h5l9.9-9.9v-5z" class="st0"/><path id="XMLID_51_" d="M430.3 409.9h2.1l.1-2.2z" class="st0"/><path id="XMLID_52_" d="M67.6 187.9v5L192.7 67.8h-5z" class="st0"/><path id="XMLID_53_" d="M67.6 175.3v5L180.1 67.8h-5z" class="st0"/><path id="XMLID_54_" d="M67.6 162.7v5l99.9-99.9h-5z" class="st0"/><path id="XMLID_55_" d="M67.6 150.1v5l87.3-87.3h-5z" class="st0"/><path id="XMLID_56_" d="M67.6 137.4v5l74.6-74.6h-5z" class="st0"/><path id="XMLID_57_" d="M67.6 124.8v5l62-62h-5z" class="st0"/><path id="XMLID_58_" d="M67.6 112.1v5l49.3-49.3h-5z" class="st0"/><path id="XMLID_59_" d="M67.6 99.5v5l36.7-36.7h-5z" class="st0"/><path id="XMLID_60_" d="M67.6 86.8v5l24-24h-5z" class="st0"/><path id="XMLID_61_" d="M67.6 74.2v5L79 67.8h-5.1z" class="st0"/><path id="XMLID_62_" d="m103.7 417.8-36.2-36.3v20.4l30.2 30.3h334.8v-14.5z" class="st1"/><path id="XMLID_63_" d="m124.9 134.9-13.1-20v19.9h-4.3v-28.3h4l13.1 19.9v-19.9h4.3v28.4z" class="st2"/><path id="XMLID_64_" d="M145.4 134.9h-3.3l-9.3-28.4h4.4l6.5 20.6 6.6-20.6h4.5z" class="st2"/><path id="XMLID_65_" d="M146.7 118.6H175v4.3h-28.3z" class="st2" transform="rotate(90.057 160.853 120.716)"/><path id="XMLID_68_" d="M187.7 132.2c-1.8 1.8-4.4 2.7-7.3 2.7h-9.9v-28.3h9.9c2.9 0 5.5.9 7.3 2.7 3.1 3.1 2.9 7.2 2.9 11.3-.1 4 .1 8.6-2.9 11.6zm-3-19.9c-1.2-1.3-2.8-1.9-4.8-1.9h-5.2V131h5.2c2 0 3.6-.6 4.8-1.9 1.5-1.6 1.5-4.7 1.5-8.6 0-3.9 0-6.5-1.5-8.2z" class="st2"/><path id="XMLID_69_" d="M184.9 118.6h28.3v4.3h-28.3z" class="st2" transform="rotate(90.052 199.052 120.752)"/><path id="XMLID_72_" d="m224.9 134.9-1.9-5.7h-11.2l-2 5.7h-4.6l10.4-28.3h3.5l10.4 28.4-4.6-.1zm-7.5-21.9-4.4 12.6h8.7l-4.3-12.6z" class="st2"/><path id="XMLID_77_" d="M227.3 109.2v-.7h.5c.3 0 .6 0 .6.3s-.2.4-.5.4h-.6m0 .5h.3l.7 1.3h.8l-.8-1.4c.4 0 .8-.2.8-.8 0-.7-.5-.9-1.3-.9h-1.2v3.1h.7v-1.3m3.5-.2c0-1.8-1.4-2.9-3-2.9s-3 1.1-3 2.9c0 1.8 1.4 2.9 3 2.9s3-1.1 3-2.9m-.9 0c0 1.3-1 2.2-2.1 2.2-1.2 0-2.1-.9-2.1-2.2 0-1.3 1-2.2 2.1-2.2s2.1.9 2.1 2.2z" class="st2"/><path id="XMLID_82_" d="M387.2 149.4V148h.9c.5 0 1.2 0 1.2.6s-.3.8-.9.8h-1.2m0 1h.6l1.4 2.5h1.5l-1.5-2.5c.8-.1 1.5-.4 1.5-1.5 0-1.3-.9-1.8-2.5-1.8H386v5.8h1.3v-2.5m6.4-.5c0-3.4-2.6-5.4-5.6-5.4-3 0-5.6 2-5.6 5.4 0 3.4 2.6 5.4 5.6 5.4 3 0 5.6-1.9 5.6-5.4m-1.6 0c0 2.5-1.8 4.2-4 4.2s-4-1.7-4-4.1c0-2.5 1.8-4.1 4-4.1 2.2-.1 4 1.5 4 4z" class="st2"/><path id="XMLID_83_" d="M144.3 162.5v18.6-18.6h-19.1v8.1h10.3v6.9c0 1.2-1 2.2-2.2 2.2h-12.4c-.5 0-1.2-.3-1.6-.6l-2.4-2.4c-.4-.4-.7-1.1-.6-1.6v-19.7c0-1.2 1-2.2 2.2-2.2h24.3v-8.8h-28c-4.1 0-7.4 3.3-7.4 7.4v27.1c0 .5.3 1.2.6 1.6l7.5 7.5c.3.4 1.1.7 1.6.6h19.7c4.1 0 7.4-3.3 7.4-7.4l.1-18.7z" class="st2"/><path id="XMLID_84_" d="M182.2 153.2v-8.9h-30.9l-.1 44.2h30.9v-8.8l-22-.1v-9h17.6v-8.1h-17.6v-9.3z" class="st2"/><path id="XMLID_85_" d="M377.7 153.4v-8.9h-30.9v44.2h30.9v-8.8l-22.1-.1v-9.1l17.7.1v-8.1h-17.7v-9.4z" class="st2"/><path id="XMLID_86_" d="M220 153.2v-8.8h-30.9l-.1 44.1h8.8l.1-17.9h17.6v-8l-17.6-.1v-9.3z" class="st2"/><path id="XMLID_89_" d="m305 188.6-9.6-17.9c3.3 0 6.7-3.6 6.7-7.2v-11.6c0-4.1-3.3-7.4-7.4-7.4h-26.5v44.1h8.8v-17.9h9.3l9.5 17.9h9.2zm-27.9-35.3h14c1.2 0 2.2 1 2.2 2.2v5c0 1.2-1 2.2-2.2 2.2h-14v-9.4z" class="st2"/><path id="XMLID_92_" d="M254 144.4h-22.1c-4.1 0-7.4 3.3-7.4 7.4v29.4c0 4.1 3.3 7.4 7.4 7.4H254c4.1 0 7.4-3.3 7.4-7.4v-29.4c0-4.1-3.3-7.4-7.4-7.4m-1.5 33.1c0 1.2-1 2.2-2.2 2.2h-14.7c-1.2 0-2.2-1-2.2-2.2v-22.1c0-1.2 1-2.2 2.2-2.2h14.7c1.2 0 2.2 1 2.2 2.2v22.1z" class="st2"/><path id="XMLID_93_" d="M320 179.8c-1.2 0-2.2-1-2.2-2.2v-22.1c0-1.2 1-2.2 2.2-2.2h19.9v-8.8h-23.5c-4.1 0-7.4 3.3-7.4 7.4v29.4c0 4.1 3.3 7.4 7.4 7.4h23.5v-8.8l-19.9-.1z" class="st2"/><path id="XMLID_94_" d="M144.2 215.9v18.6-18.6h-19.1v8h10.3v6.9c0 1.2-1 2.2-2.2 2.2h-12.4c-.5 0-1.2-.3-1.6-.6l-2.4-2.4c-.4-.3-.7-1.1-.7-1.6v-19.7c0-1.2 1-2.2 2.2-2.2h24.3v-8.8h-28c-4.1 0-7.4 3.3-7.4 7.4v27.1c0 .5.3 1.2.6 1.6l7.5 7.5c.3.4 1.1.7 1.6.6h19.7c4.1 0 7.4-3.3 7.4-7.4l.2-18.6z" class="st2"/><path id="XMLID_95_" d="m226 242-15.4-23.9 13.2-20.2h-10.2l-8.1 12.4-8-12.4-10.2-.1 13.1 20.3-15.5 23.9h10.2l10.4-16 10.4 16z" class="st2"/><path id="XMLID_96_" d="m182.1 197.8-30.9-.1v8.9h11.1l-.1 35.4h8.9v-35.4h11z" class="st2"/><path id="XMLID_97_" d="M313.7 345.3c-1.1-1.8-2.1-3.6-3.1-5.4l-.1-.1c-4.9-8.9-9.3-18.2-12.9-28.1-1.5-4-2.8-8-4-12.1-.3.9-1.2 7.5-1.2 7.5 10.5 41.9 42.3 77.3 74.1 102.8h3.3c-20.4-17.1-40.6-38.6-56.1-64.6z"/><path id="XMLID_98_" d="M432.5 280.1c-1.7.2-3.4.3-5.2.5-.3 0-.5.1-.8.1-.8.1-1.7.2-2.5.4-48.7 7.5-85.9 35.6-85.9 35.6s.4 1.9 1.4 5.1c9.9-7.1 47.3-34 92.9-40.1v-1.6z"/><path id="XMLID_99_" d="M235.9 359.2c-.4.7-.8 5.2-.8 5.2 12.3 14.1 26.8 30.6 47.7 45.4h8.2c-23.8-16.6-41.1-35.3-55.1-50.6z"/><path id="XMLID_100_" d="M403.2 344.4c0 .6-.1 1.3-.1 1.5 4.1-3.4 14.5-12.1 29.3-19.6V325c-18.1 8-29.1 17.2-29.1 17.2s0 .8-.1 2.2z"/><path id="XMLID_101_" d="M374.5 333c-.2.9-1 4.8-.9 6.1 0 0 6.9 29.5 31 50.2-.1-.6-.1-.5-.1-1-19.2-19.9-26.9-44-29.1-52.3-.4-1.1-.7-2.1-.9-3z"/><path id="XMLID_102_" d="M310.6 339.9c1 1.8 2 3.6 3 5.3v.1c15.4 26 35.7 47.5 56.2 64.6H398c-38-28.9-54-73.1-58.5-88-1-3.3-1.4-5.1-1.4-5.1s37.2-28.2 85.9-35.6c.8-.1 1.7-.2 2.5-.4.3 0 .5-.1.8-.1 1.7-.2 3.4-.4 5.2-.6v-21c-62.9-2.9-118 21.9-138.6 40.4l-.1.1c1.2 4.1 2.5 8.2 4 12.2 3.6 9.9 7.9 19.2 12.9 28.1h-.1z" class="st1"/><path id="XMLID_103_" d="M290.9 409.9h46.8c-22.4-17.6-42.4-38.7-56.7-61.1-8.5 3.9-33.1 4.8-45.1 10.1l-.1.3.1.1c14 15.2 31.3 33.9 55 50.6z" class="st1"/><path id="XMLID_104_" d="M375.3 336c2.2 8.3 9.9 32.4 29.1 52.3l.1.1c-2.1-23.2-1.6-38.6-1.3-44 .1-1.4.1-2.2.1-2.2s11-9.2 29.1-17.2v-23.4c-18.9 5.7-38.9 15.4-57.9 31.4 0 0 .3 1.1.8 3z" class="st1"/></g></svg>