<svg xmlns="http://www.w3.org/2000/svg" viewBox="0 0 662 215.33"><path d="M607.332 214.664H0V-.004h662Zm0 0" style="stroke:none;fill-rule:nonzero;fill:#75b943;fill-opacity:1"/><path d="m310.332-.004-57.156 214.668h341.992L649.332-.004Zm0 0" style="stroke:none;fill-rule:nonzero;fill:#1d1e1d;fill-opacity:1"/><path d="M326.148 65.203V39.172c0-1.809.637-3.348 1.903-4.625 1.265-1.274 2.8-1.91 4.61-1.91h24.718v6.925h-21.785c-.54 0-1 .196-1.383.586-.383.391-.574.848-.574 1.368V62.8c0 .539.191.996.574 1.37.383.372.844.556 1.383.556h13.511c.543 0 1.004-.184 1.387-.555.383-.375.574-.832.574-1.371v-7.29h-9.332v-6.925h16.93v16.61c0 1.773-.64 3.288-1.91 4.558-1.277 1.27-2.817 1.902-4.625 1.902h-19.477c-1.804 0-3.34-.633-4.605-1.898-1.262-1.27-1.899-2.785-1.899-4.555m39.973 6.454V32.633h27.344v6.93h-19.746v9.16h15.863v6.925h-15.863v9.079h19.746v6.93m5.422-.001V32.633h27.343v6.93h-19.746v9.16h15.864v6.925h-15.864v16.008m32.09-8.856c0 .54.192.997.574 1.372.383.371.844.555 1.383.555h13.516c.543 0 1.004-.184 1.387-.555a1.86 1.86 0 0 0 .57-1.371V41.57c0-.54-.192-1.008-.57-1.41a1.851 1.851 0 0 0-1.387-.599H440.53c-.539 0-1 .2-1.383.598a1.979 1.979 0 0 0-.574 1.41Zm-7.484 2.403V39.172c0-1.809.633-3.348 1.894-4.625 1.266-1.274 2.778-1.914 4.543-1.914h19.5c1.762 0 3.286.64 4.555 1.914 1.273 1.277 1.91 2.816 1.91 4.625v26.031c0 1.785-.633 3.309-1.894 4.567-1.266 1.257-2.79 1.886-4.57 1.886h-19.5c-1.786 0-3.305-.629-4.555-1.886-1.258-1.258-1.883-2.782-1.883-4.567m46.812-16.367h12.735c.543 0 1.004-.191 1.383-.574.386-.38.574-.84.574-1.383v-5.305c0-.543-.188-1.011-.574-1.414a1.837 1.837 0 0 0-1.383-.597h-12.735Zm-7.484 22.82v-39.02h23.387c1.8 0 3.336.637 4.601 1.91 1.266 1.278 1.899 2.817 1.899 4.626v10.055c0 1.804-.633 3.347-1.899 4.62-1.265 1.278-2.8 1.915-4.61 1.915h-.476l9.555 15.894h-8.156l-9.653-15.894h-7.164v15.894m29.301-6.453V39.172c0-1.809.633-3.348 1.899-4.625 1.27-1.274 2.804-1.91 4.609-1.91h19.5v6.925h-16.559c-.543 0-1.007.196-1.386.586-.383.391-.575.848-.575 1.368V62.8c0 .539.192.996.575 1.37a1.91 1.91 0 0 0 1.386.556h16.559v6.93h-19.5c-1.805 0-3.34-.634-4.61-1.9-1.265-1.269-1.898-2.784-1.898-4.554m32.57 6.454V32.633h27.344v6.93h-19.746v9.16h15.863v6.925h-15.863v9.079h19.746v6.93m8.418-34.997h-.816v-1.539h.816c.996 0 .996.57.996.758 0 .191 0 .781-.996.781m2.094-.781c0-1.145-.805-1.856-2.094-1.856h-1.91V39.2h1.094v-1.441h.816c.047 0 .098 0 .153-.004l1.05 1.445h1.36l-1.285-1.761c.527-.329.816-.88.816-1.56m-1.984 4.626a3.64 3.64 0 0 1-3.633-3.637 3.636 3.636 0 0 1 3.633-3.633 3.636 3.636 0 0 1 3.632 3.633 3.64 3.64 0 0 1-3.632 3.637m0-7.867a4.233 4.233 0 0 0-4.23 4.226 4.236 4.236 0 0 0 4.23 4.23 4.236 4.236 0 0 0 4.23-4.23 4.233 4.233 0 0 0-4.23-4.226M344.09 117.89h30.508c1.297 0 2.41-.456 3.324-1.37.918-.915 1.375-2.02 1.375-3.313v-12.719c0-1.293-.457-2.422-1.375-3.379-.914-.96-2.027-1.437-3.324-1.437H344.09Zm-17.938 54.684V79.07h56.032c4.328 0 8.011 1.528 11.035 4.586 3.031 3.055 4.55 6.75 4.55 11.078v24.094c0 4.328-1.519 8.024-4.55 11.078-3.035 3.055-6.719 4.586-11.047 4.586h-1.137l22.89 38.082h-19.542l-23.125-38.082H344.09v38.082m66.73-77.172V79.07h71.754v16.332h-26.773v77.172h-18.207V95.402m49.664 77.172 30.988-47.187-29.18-46.45h21.954l18.472 29.516 18.809-29.516h20.148l-29.52 44.442 31.126 49.195h-21.887l-20.348-31.926-20.547 31.926m-283.707-4.859v-1.145h.735c.402 0 .949.032.949.52 0 .531-.281.625-.754.625h-.93m0 .808h.493l1.14 2h1.25l-1.262-2.085c.653-.047 1.192-.356 1.192-1.235 0-1.094-.754-1.445-2.031-1.445h-1.844v4.765h1.062v-2m5.356-.375c0-2.8-2.172-4.421-4.594-4.421-2.441 0-4.613 1.62-4.613 4.421 0 2.797 2.176 4.426 4.613 4.426 2.422 0 4.594-1.629 4.594-4.426m-1.324 0c0 2.04-1.5 3.407-3.27 3.407v-.012c-1.824.012-3.293-1.356-3.293-3.395 0-2.035 1.469-3.402 3.293-3.402 1.774 0 3.27 1.363 3.27 3.402m-114.332-30.496.004 33.489h9.457v-33.489Zm-74.399-.047v33.536h9.54v-25.465l7.394.004c2.449 0 4.195.61 5.37 1.867 1.497 1.594 2.106 4.168 2.106 8.867v14.727h9.246v-18.528c0-13.222-8.425-15.008-16.675-15.008Zm89.63.047v33.489h15.339c8.172 0 10.84-1.36 13.726-4.407 2.036-2.14 3.356-6.836 3.356-11.968 0-4.711-1.113-8.907-3.063-11.524-3.503-4.676-8.55-5.59-16.085-5.59Zm9.382 7.293h4.062c5.903 0 9.715 2.649 9.715 9.52 0 6.879-3.812 9.527-9.715 9.527h-4.062Zm-38.246-7.293-7.895 26.54-7.562-26.536-10.211-.004 10.8 33.489h13.633l10.887-33.489Zm65.683 33.489h9.465v-33.485l-9.465-.004Zm26.516-33.477-13.21 33.465h9.327l2.09-5.914h15.633l1.973 5.914h10.125l-13.305-33.469Zm6.14 6.106 5.727 15.68h-11.64M64.293 70.977s12.172-17.957 36.469-19.813v-6.516c-26.914 2.16-50.219 24.957-50.219 24.957s13.2 38.157 50.219 41.653v-6.926c-27.164-3.418-36.469-33.355-36.469-33.355" style="stroke:none;fill-rule:nonzero;fill:#fff;fill-opacity:1"/><path d="M100.762 90.563v6.343c-20.532-3.66-26.23-25.004-26.23-25.004s9.859-10.922 26.23-12.691v6.957c-.012 0-.02-.004-.032-.004-8.593-1.031-15.304 6.996-15.304 6.996s3.761 13.516 15.336 17.403m0-57.93v12.015a60.487 60.487 0 0 1 2.375-.14c30.597-1.028 50.535 25.097 50.535 25.097S130.773 97.45 106.918 97.45a35.59 35.59 0 0 1-6.156-.543v7.43c1.644.207 3.347.328 5.129.328 22.199 0 38.25-11.336 53.796-24.754 2.579 2.067 13.13 7.086 15.297 9.281-14.78 12.375-49.226 22.352-68.754 22.352-1.882 0-3.69-.113-5.468-.285V121.7h84.379V32.633" style="stroke:none;fill-rule:nonzero;fill:#fff;fill-opacity:1"/><path d="M100.762 59.21v-8.046c.781-.055 1.57-.098 2.375-.121 22.004-.691 36.437 18.906 36.437 18.906s-15.59 21.653-32.308 21.653c-2.407 0-4.563-.383-6.504-1.04V66.168c8.566 1.035 10.289 4.82 15.437 13.402l11.457-9.656S119.293 58.95 105.2 58.95c-1.531-.004-3 .106-4.437.262" style="stroke:none;fill-rule:nonzero;fill:#fff;fill-opacity:1"/></svg>